<?xml version="1.0" encoding="utf-8"?>
<!-- Generator: Adobe Illustrator 25.4.1, SVG Export Plug-In . SVG Version: 6.00 Build 0)  -->
<svg version="1.0" id="Layer_1" xmlns="http://www.w3.org/2000/svg" xmlns:xlink="http://www.w3.org/1999/xlink" x="0px" y="0px"
	 viewBox="0 0 240.55 251.16" style="enable-background:new 0 0 240.55 251.16;" xml:space="preserve">
<style type="text/css">
	.st0{fill:#BD8139;}
	.st1{fill:#006633;}
	.st2{fill:#BC1413;}
	.st3{fill:#2294A6;}
	.st4{fill:#010202;}
	.st5{fill:#BD131F;}
	.st6{fill:#C2DCDB;}
	.st7{fill:#5A2583;}
	.st8{fill:#F2E500;}
	.st9{fill:#020303;}
	.st10{fill:#005AA7;}
</style>
<g>
	<g>
		<g>
			<g>
				<g>
					<g>
						<path class="st0" d="M38.51,135.01c-0.5,3.14-1.1,4.33-2.39,6.28c-1.99-2.9-3.05-5.97-2.08-12.03
							c0.28-1.72,0.9-3.56,1.59-5.07C36.57,127.45,39.02,131.83,38.51,135.01z"/>
						<path class="st0" d="M28.52,134.58c1.65,2.67,4.32,4.07,6.79,4.45c-0.1-3.8-0.7-7.62-4.39-11.26
							c-1.45-1.43-4.32-3.29-5.88-3.29C26.03,128.6,26.65,131.56,28.52,134.58z"/>
					</g>
					<g>
						<path class="st0" d="M34.63,119.13c-1.28,2.8-2.2,3.61-4.25,5.06c-1.11-3.22-1.31-6.36,1.16-11.76
							c0.7-1.54,1.76-3.09,2.79-4.32C34.38,111.39,35.93,116.3,34.63,119.13z"/>
						<path class="st0" d="M25.37,114.85c0.74,2.53,2.47,4.8,4.39,5.66c0.76-3.09,1.21-6.68-0.97-10.45c-0.85-1.48-3-3.78-4.27-4.13
							C24.85,109.07,24.53,111.99,25.37,114.85z"/>
					</g>
					<g>
						<path class="st0" d="M33.68,102.31c-0.92,2.71-2.43,4.97-3.93,6.03c0.38-3.56-0.86-6.96,1.99-11.7
							c0.81-1.35,1.95-2.68,3.03-3.71C34.48,95.97,35.08,98.17,33.68,102.31z"/>
						<path class="st0" d="M32.06,95.44c0.3,2.23-0.53,5.41-1.73,6.74c-1.67-2.15-3.05-5.95-2.98-9.05
							c0.03-1.46,0.42-3.68,1.27-4.85C29.89,90.07,31.72,92.92,32.06,95.44z"/>
					</g>
					<g>
						<path class="st0" d="M35.82,87.34c-0.85,0.99-2.43,2.13-3.77,2.46c0.04-2.38,0.65-4.44,3.55-7.15
							c0.83-0.77,2.22-1.7,3.19-2.17C38.65,82.46,37.5,85.38,35.82,87.34z"/>
						<path class="st0" d="M35.92,80.51c-0.41,2.33-1.38,4.6-2.84,5.68c-0.82-2.55-1.85-6.17-0.39-9.83
							c0.57-1.44,1.66-3.12,2.64-3.66C35.93,74.8,36.38,77.88,35.92,80.51z"/>
					</g>
					<g>
						<path class="st0" d="M48.45,149.55c0,3.53-0.57,4.82-2.02,7.31c-2.69-2.83-4.4-6.01-4.4-12.83c0-1.94,0.36-4.06,0.85-5.84
							C45.07,141.29,48.45,145.97,48.45,149.55z"/>
						<path class="st0" d="M39.77,146.12c2.99,2.07,3.99,4.36,4.27,6.95c-3.94-0.27-8.77-0.26-12.39-4.26
							c-1.42-1.57-2.52-4.55-2.45-6.18C35.31,144.74,35.31,143.03,39.77,146.12z"/>
					</g>
					<path class="st0" d="M39.79,76.26c-1.34,1.32-2.71,2.24-4.24,2.69c0.36-2.01,0.67-3.99,3.56-6.2c0.82-0.63,2.56-1.49,3.56-1.49
						C42.39,72.53,41.23,74.84,39.79,76.26z"/>
					<path class="st0" d="M41.3,68.57c-0.72,1.57-1.53,2.7-2.76,3.42c-0.28-1.44-0.13-3.57,1.15-6.17c0.43-0.87,1.43-2.34,2.29-3.02
						C42.21,64.01,41.88,67.33,41.3,68.57z"/>
					<path class="st0" d="M47.06,61.38c-0.47,0.84-0.89,1.39-1.62,1.94c-0.09-0.84-0.01-2.13,0.86-3.55
						c0.29-0.48,0.98-1.22,1.6-1.54C47.96,59.16,47.56,60.48,47.06,61.38z"/>
					<path class="st0" d="M45.9,66.47c-1.05,0.78-2.19,1.13-3.51,1.23c0.39-1.12,1.24-2.57,3.13-3.61c0.63-0.34,1.99-0.67,2.81-0.65
						C48.04,64.36,47.32,65.41,45.9,66.47z"/>
				</g>
				<g>
					<g>
						<path class="st0" d="M202.04,135.01c0.5,3.14,1.1,4.33,2.39,6.28c1.99-2.9,3.05-5.97,2.08-12.03
							c-0.28-1.72-0.9-3.56-1.59-5.07C203.97,127.45,201.53,131.83,202.04,135.01z"/>
						<path class="st0" d="M212.03,134.58c-1.65,2.67-4.32,4.07-6.79,4.45c0.1-3.8,0.7-7.62,4.39-11.26
							c1.45-1.43,4.32-3.29,5.88-3.29C214.52,128.6,213.9,131.56,212.03,134.58z"/>
					</g>
					<g>
						<path class="st0" d="M205.91,119.13c1.28,2.8,2.2,3.61,4.25,5.06c1.11-3.22,1.31-6.36-1.16-11.76
							c-0.7-1.54-1.76-3.09-2.79-4.32C206.16,111.39,204.62,116.3,205.91,119.13z"/>
						<path class="st0" d="M215.18,114.85c-0.74,2.53-2.47,4.8-4.39,5.66c-0.76-3.09-1.21-6.68,0.97-10.45
							c0.85-1.48,3-3.78,4.27-4.13C215.7,109.07,216.01,111.99,215.18,114.85z"/>
					</g>
					<g>
						<path class="st0" d="M206.87,102.31c0.92,2.71,2.43,4.97,3.93,6.03c-0.38-3.56,0.86-6.96-1.99-11.7
							c-0.81-1.35-1.95-2.68-3.03-3.71C206.07,95.97,205.47,98.17,206.87,102.31z"/>
						<path class="st0" d="M208.49,95.44c-0.3,2.23,0.53,5.41,1.73,6.74c1.67-2.15,3.05-5.95,2.98-9.05
							c-0.03-1.46-0.42-3.68-1.27-4.85C210.65,90.07,208.82,92.92,208.49,95.44z"/>
					</g>
					<g>
						<path class="st0" d="M204.73,87.34c0.85,0.99,2.43,2.13,3.77,2.46c-0.04-2.38-0.65-4.44-3.55-7.15
							c-0.83-0.77-2.22-1.7-3.19-2.17C201.89,82.46,203.05,85.38,204.73,87.34z"/>
						<path class="st0" d="M204.62,80.51c0.41,2.33,1.38,4.6,2.84,5.68c0.82-2.55,1.85-6.17,0.39-9.83
							c-0.57-1.44-1.66-3.12-2.64-3.66C204.61,74.8,204.16,77.88,204.62,80.51z"/>
					</g>
					<g>
						<path class="st0" d="M192.1,149.55c0,3.53,0.57,4.82,2.02,7.31c2.69-2.83,4.4-6.01,4.4-12.83c0-1.94-0.36-4.06-0.85-5.84
							C195.48,141.29,192.1,145.97,192.1,149.55z"/>
						<path class="st0" d="M200.78,146.12c-2.99,2.07-3.99,4.36-4.27,6.95c3.94-0.27,8.77-0.26,12.39-4.26
							c1.42-1.57,2.52-4.55,2.45-6.18C205.24,144.74,205.24,143.03,200.78,146.12z"/>
					</g>
					<path class="st0" d="M200.76,76.26c1.34,1.32,2.71,2.24,4.24,2.69c-0.36-2.01-0.67-3.99-3.56-6.2
						c-0.82-0.63-2.56-1.49-3.56-1.49C198.16,72.53,199.32,74.84,200.76,76.26z"/>
					<path class="st0" d="M199.24,68.57c0.72,1.57,1.53,2.7,2.76,3.42c0.28-1.44,0.13-3.57-1.15-6.17
						c-0.43-0.87-1.43-2.34-2.29-3.02C198.34,64.01,198.67,67.33,199.24,68.57z"/>
					<path class="st0" d="M193.49,61.38c0.47,0.84,0.89,1.39,1.62,1.94c0.09-0.84,0.01-2.13-0.86-3.55
						c-0.29-0.48-0.98-1.22-1.6-1.54C192.59,59.16,192.99,60.48,193.49,61.38z"/>
					<path class="st0" d="M194.65,66.47c1.05,0.78,2.19,1.13,3.51,1.23c-0.39-1.12-1.24-2.57-3.13-3.61
						c-0.63-0.34-1.99-0.67-2.81-0.65C192.51,64.36,193.22,65.41,194.65,66.47z"/>
				</g>
			</g>
			<g>
				<g>
					<polygon class="st1" points="70.43,70.05 62.08,72.11 62.08,74.25 70.43,76.14 					"/>
					<path class="st1" d="M78.78,80.21c-1.21,0.01-2.89,0.01-4,0c-1.34,5.13-2.84,10.68-4.19,15.81c-0.97,3.67-1.94,7.35-2.91,11.02
						c-0.01,0.05-0.02,0.1-0.04,0.15c-0.06,0.15-0.01,0.21,0.14,0.24c0.5,0.13,0.99,0.26,1.52,0.4c2.18-8.27,4.35-16.52,6.53-24.78
						c0.01,0,0.03,0,0.04,0.01v24.63h1.73V82.83h0.05c0.11,0.43,0.23,0.86,0.34,1.29c1.68,6.37,3.36,12.74,5.04,19.12
						c0.38,1.44,0.75,2.88,1.13,4.32c0.08,0.28,0.08,0.28,0.36,0.2c0.4-0.11,0.79-0.22,1.2-0.31c0.17-0.04,0.22-0.1,0.17-0.29
						c-1.18-4.43-2.34-8.86-3.51-13.29C81.22,89.48,79.93,84.62,78.78,80.21z"/>
					<path class="st1" d="M73.93,78.2c-0.12,0-0.21,0.09-0.21,0.21v1.15c0,0.12,0.09,0.21,0.21,0.21h5.67
						c0.12,0,0.21-0.09,0.21-0.21v-1.15c0-0.12-0.09-0.21-0.21-0.21H73.93z"/>
					<path class="st1" d="M71.72,76.78c0,0.53,0.43,0.96,0.96,0.96h8.17c0.52,0,0.95-0.43,0.95-0.96v-7.25l-3.09-2.76h-3.89
						l-3.1,2.76v0.52h-0.6v6.09h0.6V76.78z M76.76,69.95c1.74,0,3.15,1.41,3.15,3.15c0,1.73-1.41,3.15-3.15,3.15
						c-1.73,0-3.15-1.41-3.15-3.15C73.62,71.35,75.03,69.95,76.76,69.95z"/>
					<path class="st1" d="M86.31,70.01c-1.18,0.01-2.36,0-3.54,0.01c-0.07,0-0.15,0.01-0.23,0.01c0,2.06,0,4.1,0,6.15
						c1.34,0,2.66,0,4.01,0c0.01-0.08,0.02-0.16,0.02-0.24c0-1.89,0-3.77,0-5.66C86.57,70.08,86.52,70.01,86.31,70.01z"/>
					<path class="st1" d="M87.88,69.58c-0.23,0.1-0.46,0.21-0.7,0.29c-0.16,0.05-0.18,0.15-0.18,0.3c0,1.49,0,2.97,0,4.46
						c0,0.49-0.01,0.97,0.01,1.46c0,0.08,0.06,0.2,0.12,0.22c0.59,0.26,1.19,0.5,1.78,0.75c0.02,0.01,0.04,0,0.08,0
						c0-2.63,0-5.26,0-7.93C88.59,69.29,88.23,69.43,87.88,69.58z"/>
				</g>
				<g>
					<polygon class="st1" points="138.92,112.14 142.16,114.01 129.96,118.55 137.57,113.77 134.26,111.88 139.99,108.39 
						147.07,108.39 					"/>
					<path class="st1" d="M189.28,108.39h-0.26l-30.24,13.12c-0.05-0.05-0.09-0.09-0.14-0.12c-0.55-0.36-1.13-0.69-1.7-1.03
						c-1.16-0.69-2.33-1.39-3.5-2.09c-0.19-0.89-0.37-1.77-0.54-2.65h-1.73c-0.18,0.88-0.36,1.76-0.53,2.63
						c-0.21,0.13-0.4,0.25-0.59,0.36c-1.49,0.89-2.98,1.79-4.48,2.66c-0.06,0.03-0.11,0.07-0.16,0.11h-24.29v1.21h23.93
						c0.01,0.61,0,1.21,0,1.82c0,0.1,0.02,0.2,0.03,0.3h0.83v-2.12h3.86c-0.25,1.28-0.49,2.52-0.74,3.75
						c-0.16,0.1-0.31,0.2-0.46,0.29c-2.03,1.21-4.05,2.42-6.09,3.61c-0.07,0.05-0.13,0.09-0.19,0.14h-21.17v1.4h20.78
						c0.01,0.72,0,1.43,0,2.15v0.4h1.04v-2.55h5.01c-0.27,1.35-0.53,2.67-0.8,3.99c-0.22,0.13-0.43,0.26-0.64,0.39
						c-2.3,1.36-4.58,2.73-6.88,4.09c-0.04,0.02-0.06,0.04-0.09,0.07h-18.42v1.59h17.98c0.01,0.85,0.01,1.7,0.01,2.55
						c0,0.11,0.01,0.21,0.02,0.33h1.15v-2.88h5.65c-1.01,5.8-2.02,11.56-3.03,17.34c0.28-0.03,0.56-0.06,0.84-0.1
						c0.52-0.07,1.05-0.14,1.57-0.21c0.43-2.67,0.86-5.33,1.29-7.98h10.87c0.31,1.92,0.62,3.84,0.93,5.75
						c0.14-0.03,0.28-0.06,0.42-0.09c0.63-0.13,1.26-0.26,1.88-0.4c-0.95-4.79-1.9-9.56-2.85-14.33h5.95v2.89h1.13
						c0-1.32,0.02-2.59-0.02-3.87l7.26-2.89c0.44-0.18,0.93,0.15,0.93,0.62v4.67c0,0.48,0.48,0.8,0.92,0.62l3.58-1.48l9.09-3.7
						c0.04-0.29,0.08-0.57,0.13-0.86c0.05-0.32,0.11-0.65,0.16-0.97l-8.49,3.67c-0.44,0.19-0.93-0.13-0.94-0.6l-0.09-4.42
						c-0.01-0.48-0.51-0.79-0.94-0.6l-3.42,1.49l-8.73,3.78c-1.8-1.1-3.62-2.17-5.43-3.25c-0.67-0.4-1.35-0.81-2.03-1.21
						c-0.26-1.34-0.52-2.65-0.79-3.99h5.01v2.53h1.02v-0.4c0-0.9-0.01-1.79,0.01-2.68l26.68-10.81c0.02-0.34,0.05-0.68,0.07-1.02
						c0.01-0.21,0.03-0.41,0.04-0.62l-27.04,11.72c-0.07-0.08-0.16-0.16-0.28-0.23c-2.1-1.23-4.18-2.48-6.27-3.73
						c-0.11-0.07-0.22-0.14-0.33-0.21c-0.24-1.25-0.49-2.48-0.74-3.75h3.86v2.11h0.83c0-0.83,0.01-1.64-0.01-2.45l30.3-12.28
						C189.28,109.44,189.28,108.92,189.28,108.39z M161.65,140.24c0,0.03-0.01,0.05-0.02,0.08h-3.81c-0.17-0.86-0.34-1.71-0.53-2.68
						C158.81,138.55,160.23,139.39,161.65,140.24z M152.94,123.86c0.29,1.5,0.58,3,0.87,4.51c-0.03,0-0.06,0.01-0.08,0.02
						c-0.48-1.08-0.96-2.17-1.44-3.26c0.2-0.45,0.38-0.87,0.56-1.28C152.88,123.85,152.91,123.85,152.94,123.86z M149.09,138.88
						c1.03-1.11,2-2.16,3.01-3.25c1.02,1.09,2,2.14,3.05,3.25H149.09z M155.18,142.02c-1.04,0.72-2.07,1.44-3.14,2.19
						c-1.09-0.73-2.16-1.46-3.24-2.19c0.01-0.02,0.02-0.05,0.03-0.07h6.32C155.16,141.97,155.17,142,155.18,142.02z M150.11,132.46
						h3.94c-0.67,0.72-1.28,1.39-1.95,2.12C151.43,133.87,150.8,133.2,150.11,132.46z M152.58,123.3c-0.17,0.41-0.33,0.77-0.48,1.14
						c-0.04,0.01-0.07,0.01-0.1,0.02c-0.16-0.37-0.32-0.75-0.5-1.16H152.58z M151.58,121.56c0.14-0.32,0.26-0.59,0.43-0.96
						c0.16,0.37,0.27,0.64,0.41,0.96H151.58z M152.1,125.81c0.49,1.12,0.98,2.24,1.49,3.41h-3.05c0.5-1.16,0.98-2.28,1.46-3.41
						H152.1z M152.51,119.69c0.11,0.56,0.21,1.13,0.31,1.69c-0.03,0.01-0.06,0.02-0.08,0.03c-0.2-0.36-0.39-0.72-0.59-1.11
						c0.1-0.22,0.18-0.42,0.27-0.62C152.45,119.68,152.48,119.69,152.51,119.69z M152.37,119.33c-0.11,0.24-0.21,0.43-0.35,0.7
						c-0.14-0.26-0.24-0.44-0.37-0.7H152.37z M151.55,119.78c0.04,0,0.07,0,0.1-0.01c0.07,0.17,0.14,0.33,0.23,0.52
						c-0.17,0.3-0.33,0.6-0.49,0.9c-0.03-0.01-0.06-0.02-0.09-0.03C151.39,120.7,151.47,120.24,151.55,119.78z M151.13,123.84
						c0.03-0.01,0.06-0.01,0.09-0.01c0.19,0.42,0.38,0.85,0.58,1.3c-0.51,1.19-1.01,2.36-1.51,3.52c-0.02,0-0.05-0.01-0.08-0.02
						C150.52,127.03,150.82,125.43,151.13,123.84z M147.57,121.38c-0.01-0.02-0.02-0.04-0.03-0.06c0.91-0.54,1.82-1.08,2.73-1.63
						c0.02,0.03,0.04,0.06,0.07,0.08c-0.11,0.53-0.22,1.06-0.33,1.61H147.57z M149.51,132.87c0.73,0.78,1.4,1.49,2.1,2.24
						c-0.96,1.04-1.9,2.06-2.85,3.09c-0.03-0.01-0.07-0.03-0.1-0.04C148.93,136.44,149.21,134.71,149.51,132.87z M144.86,130.38
						c-0.01-0.03-0.02-0.05-0.03-0.08c1.26-0.75,2.52-1.5,3.87-2.3c-0.17,0.85-0.32,1.61-0.48,2.38H144.86z M146.25,140.32h-3.83
						c-0.01-0.03-0.02-0.05-0.03-0.07c1.43-0.85,2.86-1.7,4.29-2.55c0.02,0.02,0.05,0.04,0.08,0.06
						C146.59,138.61,146.42,139.46,146.25,140.32z M147.15,147.5c0.26-1.61,0.52-3.23,0.8-4.94c1.1,0.74,2.16,1.45,3.28,2.21
						c-1.37,0.95-2.68,1.86-3.99,2.77C147.21,147.53,147.18,147.51,147.15,147.5z M155.95,148.03h-7.83
						c1.35-0.94,2.62-1.82,3.92-2.72c1.33,0.9,2.63,1.78,3.93,2.65C155.96,147.98,155.96,148,155.95,148.03z M156.89,147.38
						c-0.03,0.02-0.06,0.04-0.09,0.05c-1.3-0.88-2.6-1.76-3.96-2.67c1.1-0.77,2.15-1.49,3.27-2.27
						C156.38,144.17,156.63,145.77,156.89,147.38z M159.22,130.3c-0.01,0.02-0.02,0.04-0.02,0.07h-3.36
						c-0.15-0.75-0.3-1.5-0.47-2.36C156.72,128.81,157.97,129.55,159.22,130.3z M154.57,132.96c0.28,1.72,0.54,3.35,0.8,4.98
						c-0.03,0.01-0.05,0.03-0.08,0.04c-0.89-0.95-1.78-1.9-2.7-2.88C153.24,134.4,153.87,133.72,154.57,132.96z M156.49,121.39
						h-2.44c-0.11-0.55-0.21-1.08-0.35-1.74c1,0.59,1.91,1.13,2.81,1.67C156.51,121.34,156.5,121.36,156.49,121.39z"/>
				</g>
				<path class="st2" d="M119.42,60.35v-1.4h-6.13V54.6c-0.31,0.01-0.63,0.02-0.94,0.03c-0.15,0.01-0.31,0.02-0.46,0.02v4.3h-9.77
					v-3.61c-0.47,0.05-0.94,0.1-1.4,0.14v4.87h4.97v4.72h-4.97v7.52h4.97v4.72h-4.97v7.52h4.97v4.72h-4.97v7.52h4.97v4.72h-4.97v4.9
					h1.4v-3.5h9.77v3.5h1.4v-3.5h6.13v-1.4h-12.33v-4.72h12.33v-1.4h-6.13v-4.72h6.13v-1.4h-12.33v-4.72h12.33v-1.4h-6.13v-4.72
					h6.13v-1.4h-12.33v-4.72h12.33v-1.4h-6.13v-4.72h6.13v-1.4h-12.33v-4.72H119.42z M111.89,90.95v4.72h-9.77v-4.72H111.89z
					 M111.89,78.71v4.72h-9.77v-4.72H111.89z M111.89,66.47v4.72h-9.77v-4.72H111.89z"/>
				<g>
					<path class="st3" d="M151.39,80.79l-3.88-2.66c-0.42-0.29-0.42-0.9,0-1.19l3.88-2.66c0.59-0.4,0.3-1.32-0.41-1.32
						c-0.01,0-0.02,0-0.02,0l-4.7,0.13c-0.01,0-0.01,0-0.02,0c-0.5,0-0.85-0.49-0.68-0.96l1.58-4.43c0.18-0.51-0.23-0.97-0.68-0.97
						c-0.15,0-0.3,0.05-0.44,0.15l-3.72,2.87c-0.13,0.1-0.29,0.15-0.44,0.15c-0.3,0-0.6-0.19-0.69-0.52l-1.33-4.51
						c-0.1-0.35-0.4-0.52-0.69-0.52c-0.3,0-0.59,0.17-0.69,0.52l-1.33,4.51c-0.1,0.33-0.39,0.52-0.69,0.52
						c-0.15,0-0.31-0.05-0.44-0.15l-3.72-2.87c-0.14-0.11-0.29-0.15-0.44-0.15c-0.46,0-0.87,0.45-0.68,0.97l1.58,4.43
						c0.17,0.47-0.18,0.96-0.68,0.96c-0.01,0-0.01,0-0.02,0l-4.7-0.13c-0.01,0-0.02,0-0.02,0c-0.7,0-0.99,0.92-0.41,1.32l3.88,2.66
						c0.42,0.29,0.42,0.9,0,1.19l-3.88,2.66c-0.59,0.4-0.3,1.32,0.41,1.32c0.01,0,0.02,0,0.02,0l4.7-0.13c0.01,0,0.01,0,0.02,0
						c0.5,0,0.85,0.49,0.68,0.96l-1.58,4.43c-0.18,0.51,0.23,0.97,0.68,0.97c0.15,0,0.3-0.05,0.44-0.15l3.72-2.87
						c0.13-0.1,0.29-0.15,0.44-0.15c0.3,0,0.6,0.19,0.69,0.52l1.33,4.51c0.1,0.35,0.4,0.52,0.69,0.52c0.3,0,0.59-0.17,0.69-0.52
						l1.33-4.51c0.1-0.33,0.39-0.52,0.69-0.52c0.15,0,0.31,0.05,0.44,0.15l3.72,2.87c0.14,0.11,0.29,0.15,0.44,0.15
						c0.46,0,0.87-0.45,0.68-0.97l-1.58-4.43c-0.17-0.47,0.18-0.96,0.68-0.96c0.01,0,0.01,0,0.02,0l4.7,0.13c0.01,0,0.02,0,0.02,0
						C151.69,82.11,151.98,81.19,151.39,80.79z M146.31,80.48l-0.04,0h-0.02c-0.72,0-1.4,0.35-1.81,0.94
						c-0.42,0.59-0.52,1.35-0.28,2.03l0.69,1.94l-1.63-1.26c-0.39-0.3-0.86-0.46-1.35-0.46c-1,0-1.85,0.64-2.13,1.59l-0.58,1.97
						l-0.58-1.97c-0.28-0.95-1.14-1.59-2.13-1.59c-0.49,0-0.96,0.16-1.35,0.46l-1.63,1.26l0.69-1.94c0.24-0.68,0.14-1.44-0.28-2.03
						c-0.42-0.59-1.09-0.94-1.81-0.94l-0.04,0l-0.02,0l-2.06,0.06l1.7-1.16c0.6-0.41,0.97-1.1,0.97-1.83s-0.36-1.42-0.97-1.83
						l-1.7-1.16l2.06,0.06l0.04,0h0.02c0.72,0,1.4-0.35,1.81-0.94c0.42-0.59,0.52-1.35,0.28-2.03l-0.69-1.94l1.63,1.26
						c0.39,0.3,0.86,0.46,1.35,0.46c1,0,1.85-0.64,2.13-1.59l0.58-1.97l0.58,1.97c0.28,0.95,1.14,1.59,2.13,1.59
						c0.49,0,0.96-0.16,1.35-0.46l1.63-1.26l-0.69,1.94c-0.24,0.68-0.14,1.44,0.28,2.03c0.42,0.59,1.09,0.94,1.81,0.94l0.04,0
						l0.02,0l2.06-0.06l-1.7,1.16c-0.6,0.41-0.97,1.1-0.97,1.83s0.36,1.42,0.97,1.83l1.7,1.16L146.31,80.48z"/>
					<path class="st3" d="M139.14,73.86c-2.03,0-3.67,1.64-3.67,3.67s1.64,3.67,3.67,3.67c2.03,0,3.67-1.64,3.67-3.67
						S141.17,73.86,139.14,73.86z M139.14,79.71c-1.2,0-2.17-0.97-2.17-2.17c0-1.2,0.97-2.17,2.17-2.17c1.2,0,2.17,0.97,2.17,2.17
						C141.32,78.74,140.34,79.71,139.14,79.71z"/>
				</g>
				<path class="st4" d="M175.51,75.42v-2.2l1.4-1.4l-3.76-3.76l-1.4,1.4l-4.65-0.51c0.01-1.46-0.67-2.92-2.02-3.86
					c-1.39-0.95-3.81-0.97-5.2-0.03c-2.51,1.69-2.74,5.14-0.72,7.17c0.9,0.9,2.08,1.36,3.27,1.36l0.39,4.8l-28.3,28.3h1.96
					l25.87-25.87c0.5-0.5,1.3-0.5,1.8,0c0.25,0.25,0.37,0.57,0.37,0.9c0,0.33-0.12,0.65-0.37,0.9l-24.07,24.07h1.96L166.73,82h2.19
					l6.56,6.55l6.58-6.58L175.51,75.42z M162.38,72.2c-1.25-0.03-2.53-0.78-3.03-2.23c-0.31-0.88-0.2-1.88,0.27-2.67
					c1.15-1.91,3.67-2.15,5.14-0.67c0.62,0.61,0.94,1.43,0.96,2.23c0,0.46-0.07,0.92-0.26,1.35c-0.15,0.38-0.39,0.73-0.7,1.04
					s-0.66,0.55-1.04,0.7C163.29,72.14,162.83,72.22,162.38,72.2z M167.5,80.62h-0.02c-0.17,0-0.34-0.07-0.46-0.19l-2.28-2.28
					c-0.25-0.26-0.41-0.59-0.45-0.94l-0.41-3.85c0.68-0.21,1.32-0.59,1.86-1.13c0.55-0.54,0.92-1.18,1.13-1.86l3.85,0.42
					c0.35,0.03,0.68,0.19,0.93,0.44l2.28,2.28c0.13,0.13,0.19,0.29,0.2,0.46c0,1.77-0.7,3.46-1.95,4.7
					C170.94,79.92,169.25,80.62,167.5,80.62z M175.8,86.27c-0.18,0.18-0.47,0.18-0.64,0l-2-1.99c-1.28-1.28-1.28-3.35,0-4.62
					l0.01-0.01c1.27-1.28,3.34-1.28,4.62,0l1.99,2c0.18,0.17,0.18,0.46,0,0.64L175.8,86.27z"/>
				<g>
					<g>
						<path class="st5" d="M64.29,124.6c0.01-1.69,1.36-3.03,3.04-3.03c1.69,0.01,3.04,1.38,3.02,3.08
							c-0.01,1.65-1.39,2.99-3.06,2.99C65.64,127.64,64.28,126.27,64.29,124.6z M67.32,122.67c-1.08,0-1.93,0.86-1.94,1.94
							c0,1.07,0.86,1.94,1.94,1.95c1.07,0,1.96-0.86,1.95-1.93C69.27,123.53,68.41,122.67,67.32,122.67z"/>
						<path class="st5" d="M86.1,124.6c0-1.68,1.35-3.02,3.04-3.02c1.67,0,3.02,1.37,3.02,3.05c0,1.64-1.37,3.01-3.01,3.02
							C87.46,127.65,86.1,126.3,86.1,124.6z M89.12,122.67c-1.08,0-1.93,0.86-1.93,1.94c0,1.08,0.86,1.94,1.94,1.94
							c1.08,0,1.95-0.87,1.95-1.96C91.07,123.53,90.2,122.67,89.12,122.67z"/>
					</g>
					<g>
						<g>
							<path class="st6" d="M108.88,149.34c0.04-0.69,0.09-1.38,0.13-2.08l-0.28,0.31c-2.32-0.69-4.74-1.35-7.18-0.94
								c-0.1,0.13-0.31,0.4-0.41,0.54c0,0,0,0,0,0c-0.62,0.26-1.22,0.51-1.84,0.72c0.18,0.1,0.54,0.27,0.72,0.36l-0.43,0.39
								c0.09,0.14,0.26,0.43,0.34,0.57c-1.04,0.46-2.08,0.92-3.09,1.44c-1.16-0.13-2.32-0.3-3.47-0.46
								c-0.12-0.06-0.35-0.19-0.47-0.26c-0.15-0.09-0.45-0.26-0.59-0.34c0,0,0,0,0,0c-1.05-0.93-2.54-0.4-3.81-0.52
								c-2.22-0.32-4.13,1.56-6.36,0.85c0,0,0,0-0.01,0c-0.57-0.11-1.15-0.2-1.72-0.29c-0.09-0.18-0.26-0.55-0.34-0.75
								c0.17,0,0.51-0.01,0.69-0.01c-1.42-0.51-2.91-0.48-4.38-0.49c0.87,0.16,1.8,0.17,2.61,0.59c0.14,0.21,0.43,0.66,0.56,0.88
								c-1.45-0.01-2.88,0.01-4.31,0.24c1.54,0.98,3.48,0.44,5.16,0.98c1.36,0.3,2.73,1.22,4.15,0.72c2.08-0.71,4.17-1.52,6.42-1.31
								c0.77,0.3,1.49,0.69,2.2,1.12c0.71,0.39,1.41,1.08,2.28,1c1.94-0.33,3.83-1.1,5.29-2.45c2.22-0.22,4.5-0.11,6.65,0.55
								c0.73-0.29,1.46-0.6,2.16-0.96c1.1-0.13,2.2-0.19,3.32-0.19c0.05-0.07,0.15-0.22,0.19-0.29
								C111.69,149.37,110.28,149.37,108.88,149.34z"/>
							<path class="st5" d="M112.3,140.76c-1.94-0.12-3.91-0.06-5.8,0.38l0.54,0.09c-1.14,0.09-2.27,0.21-3.41,0.32
								c-4.23,0.42-8.45,1.23-12.73,1.02c0.01-0.17,0.03-0.51,0.04-0.69c0.02-0.16,0.07-0.49,0.1-0.66c1.85,0,3.69-0.04,5.54-0.3
								c2.13-0.31,4.3-0.01,6.43-0.3c0.05-0.26,0.23-0.69,0.35-1.03c0.04-0.11,0.06-0.2,0.09-0.29c0.01-0.01,0.01-0.01,0.01-0.02
								h-0.05c-0.68-0.29-1.42-0.45-2.15-0.52c-2.48-0.14-6.75,1.15-9.22,0.45c-0.01-0.28-0.02-0.84-0.02-1.12
								c0.82-0.16,1.86-0.24,2.97-0.29c2.19-0.1,4.65-0.03,6.3-0.13c0.17,0.02,0.33,0.02,0.48,0.01c0.01,0,0.01,0,0.02,0
								c0.14-0.02,0.27-0.05,0.38-0.1c0.02,0,0.04-0.02,0.07-0.03c0.1-0.03,0.18-0.09,0.27-0.14c0.02-0.02,0.04-0.04,0.06-0.06
								c0.07-0.06,0.14-0.13,0.2-0.19c0.02-0.03,0.03-0.06,0.05-0.1c0.05-0.07,0.1-0.15,0.13-0.23c0.02-0.03,0.03-0.07,0.04-0.12
								c0.03-0.09,0.05-0.17,0.07-0.27c0.01-0.04,0.01-0.09,0.02-0.13c0.01-0.1,0.01-0.2,0.01-0.3c0-0.05,0-0.1-0.01-0.15v-0.1
								c0-0.01-0.01-0.01-0.01-0.02c-0.01-0.11-0.02-0.21-0.05-0.32c-0.15-0.14-0.3-0.27-0.45-0.39c-0.03-0.05-0.06-0.11-0.1-0.15
								c-0.02,0-0.04,0-0.07-0.01c-0.01,0-0.01,0-0.02,0c-0.56-0.6-1-1.05-1.58-1.65c-0.01-0.16-0.02-0.32-0.03-0.48
								c-0.03-0.68-0.06-1.35-0.11-2.03c0.05-0.23,0.09-0.45,0.09-0.6c0-0.63-0.57-1.13-1.3-1.13c-0.56,0-1.03,0.32-1.21,0.77
								c-0.61,0.05-1.22,0.12-1.84,0.19c-0.18-0.33-0.98-2.79-0.64-4.55c0.65-0.19,1.12-0.68,1.24-1.35
								c0.05-0.3,0.02-0.62,0.03-0.93c0.03-0.71-0.2-1.34-0.62-1.91c-0.65-0.89-1.55-1.48-2.51-1.98c-1.91-0.99-3.97-1.55-6.07-1.98
								c-0.12-0.02-0.25-0.13-0.32-0.23c-0.21-0.28-0.38-0.6-0.6-0.88c-1.17-1.46-2.68-2.44-4.39-3.15c-2.31-0.96-4.71-1.26-7.19-1
								c-1.87,0.2-3.67,0.64-5.38,1.43c-1.47,0.68-2.8,1.56-3.79,2.88c-0.05,0.07-0.18,0.1-0.28,0.1c-0.63,0-1.26-0.02-1.89-0.03
								c-0.63-0.01-1.23,0.11-1.79,0.39c-1.37,0.68-2.16,1.74-2.14,3.32c0.01,1.18,0.03,2.35-0.01,3.53c-0.04,1,0.79,1.78,1.65,1.85
								c0.5,0.04,1,0.03,1.5,0.04c0.2,0,0.41,0,0.62,0c-0.31-1.68,0.15-3.03,1.56-3.95c1.24-0.81,2.57-0.81,3.81-0.02
								c1.44,0.91,1.91,2.28,1.61,3.95c4.94,0,9.88,0,14.83,0c-0.31-1.61,0.13-2.94,1.47-3.87c1.2-0.83,2.52-0.89,3.79-0.15
								c1.53,0.9,2.03,2.29,1.73,4.01c0.03,0.01,0.05,0.03,0.08,0.03c0.51,0,1.03,0.01,1.54,0.01c-0.05,3.31,2.94,6.82,2.45,8.9
								c-0.27,0.69-0.79,1.25-1.2,1.84c-0.01,0.01-0.02,0.01-0.02,0.02c-0.18-0.02-0.37-0.02-0.56-0.04c0,0,0,0-0.01,0
								c-1.23-0.11-2.48-0.14-3.74-0.14c-1.55,0-3.13,0.05-4.68,0.13l-0.48,0.05c-0.03,0.98,0.87,1.61,1.25,2.45
								c0.14,1.21-0.01,2.44-0.04,3.65c-3.2,0.04-7.68-0.12-11.07-0.09c-0.43,0.46-0.67,1.05-0.45,1.71c0.5,1.37,1.93,2.38,3.39,2.5
								c1.31,0.06,2.48,0.7,3.72,1.09c2.85,0.7,5.52-1.12,8.38-0.78c1.81,0,3.37,0.95,4.96,1.69c1.1,0.56,2.36-0.32,3.48,0.14
								l0.43-0.39c-0.18-0.1-0.54-0.27-0.72-0.36c0.62-0.21,1.21-0.47,1.83-0.72h0.01c0.01-0.01,0.01-0.02,0.02-0.04
								c0.11-0.14,0.29-0.37,0.38-0.49v-0.01c0.51-0.09,1.03-0.13,1.54-0.13c0.24,0,0.5,0.01,0.75,0.03
								c0.23,0.02,0.47,0.04,0.7,0.06c0.31,0.04,0.62,0.1,0.93,0.15c1.1,0.2,2.19,0.51,3.26,0.83l0.29-0.31
								c2-1.42,3.83-3.34,4.31-5.82C113.34,140.91,112.73,140.7,112.3,140.76z M86.01,117.09c-4.98,0-9.96,0.01-14.94-0.01
								c-0.78,0-1.56-0.13-2.32-0.26c-0.5-0.08-0.61-0.35-0.31-0.75c0.3-0.4,0.66-0.79,1.06-1.08c1.32-0.97,2.85-1.46,4.45-1.76
								c1.47-0.28,2.96-0.39,4.45-0.27c2.5,0.2,4.79,0.97,6.72,2.62c0.37,0.32,0.67,0.74,0.99,1.12c0.08,0.1,0.1,0.24,0.16,0.38
								C86.14,117.08,86.08,117.09,86.01,117.09z M96.73,146.13c-0.78-0.21-1.91-0.45-1.83-1.37c0.01-0.13,0.03-0.27,0.1-0.43
								c0.79-0.15,1.58-0.33,2.35-0.51c0.01,0,0.01,0,0.02,0c0.07-0.02,0.14-0.03,0.2-0.04c1.48,0.05,3.22-0.41,4.43,0.7
								C100.95,146.29,98.57,146.5,96.73,146.13z M104.26,144.41c0.63-2.34,4.58-2.76,5.9-0.92
								C109.01,145.54,106.12,144.91,104.26,144.41z"/>
						</g>
						<g>
							<path class="st4" d="M100.47,127.47c0,0,3.86-5.67,2.11-6.92c-0.83-0.59-1.56,2.82-1.6,3.8c-0.04,0.98-0.99,1.45-1.36,2.27
								S100.47,127.47,100.47,127.47z"/>
							<path class="st4" d="M101.67,128.11L101.67,128.11c0.16,0.16,0.41,0.16,0.56,0l2.56-2.56c0.16-0.16,0.16-0.41,0-0.56l0,0
								c-0.16-0.16-0.41-0.16-0.56,0l-2.56,2.56C101.51,127.7,101.51,127.95,101.67,128.11z"/>
						</g>
					</g>
				</g>
				<path class="st7" d="M190.99,107.86c0-0.11,0-0.21,0-0.32s0-0.21,0-0.32v-0.54h-0.01c-0.01-1.44-0.02-2.87-0.06-4.3
					c-0.01-0.56-0.04-1.11-0.06-1.66c-0.04-1.16-0.09-2.32-0.15-3.48c-0.03-0.64-0.08-1.29-0.12-1.93
					c-0.07-1.07-0.14-2.14-0.23-3.21c-0.05-0.66-0.11-1.32-0.17-1.98c-0.1-1.07-0.21-2.13-0.32-3.2c-0.07-0.63-0.13-1.25-0.21-1.88
					c-0.14-1.17-0.29-2.33-0.46-3.5c-0.07-0.5-0.13-1.01-0.2-1.51c-0.24-1.66-0.5-3.31-0.79-4.95c-0.04-0.22-0.08-0.44-0.12-0.66
					c-0.22-1.25-0.45-2.51-0.7-3.75c-0.01-0.05-0.03-0.09-0.04-0.14c-0.4-2-0.82-3.99-1.28-5.97c-1.9-0.71-3.81-1.38-5.74-2.03
					c-0.05-0.02-0.1-0.05-0.16-0.07c-0.34-0.11-0.68-0.22-1.03-0.33c-0.53-0.18-1.06-0.35-1.6-0.52c-0.73-0.23-1.46-0.46-2.19-0.68
					c-0.53-0.16-1.06-0.32-1.59-0.48c-0.75-0.22-1.5-0.44-2.26-0.65c-0.52-0.15-1.03-0.29-1.55-0.44c-0.8-0.22-1.61-0.43-2.42-0.64
					c-0.47-0.12-0.94-0.25-1.41-0.37c-0.96-0.24-1.93-0.47-2.91-0.7c-0.32-0.07-0.64-0.16-0.96-0.23c-1.29-0.29-2.59-0.58-3.89-0.84
					c-0.32-0.07-0.64-0.12-0.96-0.19c-0.98-0.2-1.97-0.39-2.96-0.57c-0.49-0.09-0.97-0.17-1.46-0.26c-0.83-0.15-1.66-0.29-2.49-0.43
					c-0.54-0.09-1.08-0.17-1.62-0.25c-0.79-0.12-1.58-0.24-2.37-0.35c-0.56-0.08-1.12-0.15-1.69-0.22c-0.78-0.1-1.55-0.2-2.33-0.29
					c-0.57-0.07-1.15-0.13-1.72-0.19c-0.78-0.08-1.56-0.16-2.34-0.24c-0.57-0.05-1.15-0.11-1.72-0.16
					c-0.79-0.07-1.59-0.13-2.39-0.19c-0.56-0.04-1.13-0.08-1.69-0.12c-0.83-0.05-1.66-0.1-2.49-0.14c-0.54-0.03-1.07-0.06-1.61-0.08
					c-0.92-0.04-1.84-0.07-2.75-0.09c-0.45-0.01-0.9-0.03-1.36-0.04c-1.09-0.02-2.19-0.03-3.28-0.04v-0.01h-1.7v0.01
					c-1.1,0.01-2.19,0.01-3.28,0.04c-0.45,0.01-0.9,0.03-1.35,0.04c-0.92,0.03-1.84,0.05-2.76,0.09c-0.54,0.02-1.07,0.05-1.61,0.08
					c-0.83,0.04-1.66,0.09-2.49,0.14c-0.57,0.04-1.13,0.08-1.7,0.12c-0.8,0.06-1.59,0.12-2.38,0.19c-0.58,0.05-1.15,0.1-1.73,0.16
					c-0.78,0.07-1.56,0.15-2.34,0.24c-0.58,0.06-1.15,0.13-1.72,0.19c-0.78,0.09-1.55,0.19-2.33,0.29
					c-0.57,0.07-1.13,0.15-1.69,0.23c-0.79,0.11-1.58,0.23-2.37,0.35c-0.54,0.08-1.08,0.16-1.61,0.25
					c-0.84,0.14-1.67,0.28-2.51,0.43c-0.48,0.08-0.97,0.16-1.45,0.25c-0.99,0.18-1.97,0.38-2.96,0.57
					c-0.32,0.06-0.64,0.12-0.97,0.19c-1.3,0.27-2.6,0.55-3.89,0.84c-0.33,0.08-0.66,0.16-0.99,0.24c-0.96,0.22-1.92,0.45-2.87,0.69
					c-0.48,0.12-0.95,0.25-1.42,0.37c-0.8,0.21-1.61,0.42-2.41,0.64c-0.52,0.14-1.04,0.29-1.56,0.44c-0.75,0.21-1.5,0.43-2.25,0.65
					c-0.54,0.16-1.07,0.32-1.6,0.48c-0.73,0.22-1.45,0.45-2.18,0.68c-0.54,0.17-1.07,0.35-1.61,0.52c-0.34,0.11-0.68,0.22-1.02,0.33
					c-0.05,0.02-0.1,0.05-0.16,0.06c-1.93,0.65-3.84,1.32-5.74,2.03c-0.46,1.98-0.88,3.97-1.28,5.97c-0.01,0.05-0.03,0.09-0.04,0.14
					c-0.25,1.24-0.47,2.49-0.7,3.75c-0.04,0.22-0.08,0.44-0.12,0.66c-0.29,1.64-0.55,3.29-0.79,4.95c-0.07,0.5-0.14,1.01-0.2,1.51
					c-0.16,1.16-0.32,2.33-0.46,3.5c-0.07,0.62-0.14,1.25-0.21,1.88c-0.12,1.06-0.23,2.13-0.32,3.2c-0.06,0.66-0.12,1.32-0.17,1.98
					c-0.09,1.07-0.16,2.13-0.23,3.2c-0.04,0.64-0.08,1.29-0.12,1.93c-0.06,1.16-0.11,2.32-0.15,3.48c-0.02,0.56-0.05,1.11-0.06,1.66
					c-0.04,1.43-0.05,2.86-0.06,4.3h-0.01v0.51c0,0.12-0.01,0.23-0.01,0.35s0,0.23,0.01,0.35v0.5h0.01
					c0.01,1.44,0.02,2.88,0.06,4.31c0.01,0.56,0.04,1.11,0.06,1.66c0.04,1.16,0.09,2.32,0.15,3.48c0.03,0.64,0.08,1.29,0.12,1.93
					c0.07,1.07,0.14,2.14,0.23,3.2c0.05,0.66,0.11,1.32,0.17,1.97c0.1,1.07,0.21,2.14,0.32,3.2c0.07,0.62,0.13,1.25,0.21,1.87
					c0.14,1.17,0.29,2.34,0.46,3.5c0.07,0.5,0.13,1,0.2,1.5c0.24,1.66,0.5,3.31,0.79,4.95c0.04,0.22,0.08,0.43,0.12,0.64
					c0.22,1.26,0.45,2.51,0.7,3.76c0.01,0.05,0.03,0.09,0.04,0.14c0.4,2,0.82,3.99,1.28,5.97c1.9,0.71,3.81,1.38,5.74,2.03
					c0.05,0.02,0.1,0.05,0.16,0.07c0.34,0.11,0.68,0.22,1.02,0.33c0.54,0.18,1.07,0.35,1.61,0.52c0.72,0.23,1.45,0.46,2.18,0.68
					c0.53,0.16,1.07,0.33,1.6,0.48c0.75,0.22,1.5,0.43,2.25,0.65c0.52,0.15,1.04,0.3,1.56,0.44c0.8,0.22,1.6,0.43,2.4,0.63
					c0.48,0.12,0.95,0.25,1.43,0.37c0.96,0.24,1.93,0.47,2.9,0.7c0.32,0.08,0.64,0.16,0.97,0.23c1.29,0.29,2.59,0.58,3.89,0.84
					c0.32,0.07,0.64,0.12,0.96,0.19c0.98,0.2,1.97,0.39,2.96,0.57c0.49,0.09,0.97,0.17,1.46,0.26c0.83,0.15,1.66,0.29,2.49,0.42
					c0.54,0.09,1.08,0.17,1.62,0.25c0.79,0.12,1.58,0.24,2.37,0.35c0.56,0.08,1.12,0.15,1.69,0.22c0.78,0.1,1.55,0.2,2.33,0.29
					c0.57,0.07,1.15,0.13,1.72,0.19c0.78,0.08,1.56,0.16,2.34,0.24c0.57,0.05,1.15,0.11,1.72,0.16c0.79,0.07,1.59,0.13,2.39,0.19
					c0.56,0.04,1.13,0.08,1.69,0.12c0.83,0.05,1.66,0.1,2.49,0.14c0.54,0.03,1.07,0.06,1.61,0.08c0.92,0.04,1.84,0.07,2.75,0.09
					c0.45,0.01,0.91,0.03,1.36,0.04c1.09,0.02,2.19,0.03,3.29,0.04v0.01h1.7v-0.01c1.1-0.01,2.19-0.01,3.28-0.04
					c0.45-0.01,0.91-0.03,1.36-0.04c0.92-0.03,1.84-0.05,2.75-0.09c0.54-0.02,1.07-0.05,1.61-0.08c0.83-0.04,1.66-0.09,2.49-0.14
					c0.57-0.04,1.13-0.08,1.69-0.12c0.8-0.06,1.59-0.12,2.39-0.19c0.57-0.05,1.15-0.1,1.72-0.16c0.78-0.07,1.56-0.15,2.34-0.24
					c0.57-0.06,1.15-0.13,1.72-0.19c0.78-0.09,1.56-0.19,2.33-0.29c0.56-0.07,1.13-0.15,1.69-0.22c0.79-0.11,1.58-0.23,2.37-0.35
					c0.54-0.08,1.08-0.16,1.62-0.25c0.83-0.13,1.66-0.28,2.49-0.43c0.49-0.09,0.97-0.17,1.46-0.26c0.99-0.18,1.97-0.38,2.96-0.57
					c0.32-0.06,0.64-0.12,0.96-0.19c1.3-0.27,2.6-0.55,3.89-0.84c0.32-0.07,0.64-0.15,0.97-0.23c0.97-0.23,1.93-0.46,2.9-0.7
					c0.48-0.12,0.95-0.25,1.43-0.37c0.8-0.21,1.61-0.42,2.4-0.63c0.52-0.14,1.04-0.29,1.56-0.44c0.75-0.21,1.5-0.43,2.24-0.65
					c0.54-0.16,1.07-0.32,1.6-0.49c0.73-0.22,1.45-0.45,2.18-0.68c0.54-0.17,1.07-0.35,1.61-0.52c0.34-0.11,0.68-0.22,1.02-0.33
					c0.05-0.02,0.1-0.05,0.16-0.07c1.93-0.65,3.84-1.32,5.74-2.03c0.46-1.98,0.88-3.97,1.28-5.97c0.01-0.05,0.03-0.09,0.04-0.14
					c0.25-1.25,0.48-2.5,0.7-3.76c0.04-0.22,0.08-0.43,0.12-0.64c0.29-1.64,0.55-3.29,0.79-4.95c0.07-0.5,0.14-1,0.2-1.5
					c0.16-1.16,0.32-2.33,0.46-3.5c0.07-0.62,0.14-1.25,0.21-1.87c0.12-1.06,0.23-2.13,0.32-3.2c0.06-0.66,0.12-1.32,0.17-1.97
					c0.09-1.07,0.16-2.13,0.23-3.2c0.04-0.64,0.08-1.28,0.12-1.93c0.06-1.16,0.11-2.32,0.15-3.48c0.02-0.55,0.05-1.11,0.06-1.66
					c0.04-1.43,0.05-2.87,0.06-4.31h0.01V107.86z M124.25,54.51c0.48,0.01,0.97,0.03,1.45,0.04c0.83,0.02,1.67,0.05,2.5,0.08
					c0.6,0.03,1.19,0.06,1.79,0.09c0.71,0.04,1.42,0.07,2.13,0.12c0.66,0.04,1.32,0.09,1.98,0.14c0.64,0.05,1.28,0.09,1.92,0.15
					c0.7,0.06,1.4,0.12,2.11,0.19c0.59,0.06,1.18,0.11,1.77,0.17c0.74,0.08,1.47,0.16,2.2,0.24c0.55,0.06,1.1,0.13,1.65,0.2
					c0.76,0.1,1.52,0.19,2.28,0.3c0.52,0.07,1.03,0.15,1.55,0.22c0.79,0.12,1.57,0.23,2.35,0.36c0.48,0.08,0.96,0.16,1.44,0.24
					c0.81,0.14,1.62,0.27,2.42,0.42c0.45,0.08,0.89,0.17,1.34,0.25c0.84,0.16,1.67,0.32,2.5,0.49c0.39,0.08,0.78,0.17,1.17,0.25
					c0.88,0.19,1.76,0.37,2.64,0.57c0.24,0.05,0.48,0.11,0.72,0.17c2.97,0.68,5.91,1.44,8.84,2.27c0.53,0.15,1.06,0.29,1.59,0.45
					c0.64,0.19,1.28,0.39,1.92,0.58c0.63,0.19,1.25,0.38,1.88,0.58c0.59,0.19,1.18,0.38,1.77,0.57c0.52,0.17,1.05,0.34,1.57,0.52
					c3.05,1.07,5.34,3.68,5.98,6.86c0.32,1.62,0.62,3.25,0.9,4.87c0.08,0.44,0.14,0.88,0.21,1.33c0.19,1.18,0.38,2.37,0.55,3.56
					c0.08,0.59,0.16,1.18,0.24,1.77c0.14,1.04,0.27,2.09,0.4,3.14c0.08,0.65,0.15,1.3,0.22,1.96c0.11,1,0.2,2,0.29,3
					c0.06,0.67,0.12,1.34,0.17,2.01c0.08,1.01,0.15,2.02,0.21,3.03c0.04,0.65,0.08,1.3,0.12,1.95c0.06,1.1,0.1,2.21,0.14,3.31
					c0.02,0.55,0.05,1.1,0.06,1.65c0.04,1.37,0.05,2.74,0.06,4.11h-68.16V54.47C122.17,54.48,123.21,54.49,124.25,54.51z
					 M51.32,102.58c0.01-0.55,0.04-1.11,0.06-1.66c0.04-1.1,0.08-2.2,0.14-3.3c0.03-0.65,0.08-1.31,0.12-1.96
					c0.06-1.01,0.13-2.01,0.21-3.02c0.05-0.67,0.11-1.35,0.17-2.02c0.09-1,0.19-1.99,0.29-2.98c0.07-0.66,0.14-1.31,0.22-1.97
					c0.12-1.04,0.25-2.08,0.39-3.11c0.08-0.6,0.16-1.2,0.24-1.79c0.17-1.18,0.36-2.35,0.55-3.53c0.07-0.45,0.14-0.9,0.22-1.35
					c0.28-1.63,0.58-3.25,0.9-4.87c0.64-3.18,2.92-5.79,5.98-6.86c0.53-0.18,1.06-0.35,1.58-0.52c0.58-0.19,1.17-0.38,1.76-0.57
					c0.63-0.2,1.26-0.39,1.9-0.58c0.64-0.19,1.27-0.39,1.91-0.58c0.53-0.16,1.07-0.3,1.61-0.45c2.92-0.82,5.86-1.58,8.82-2.26
					c0.24-0.06,0.48-0.12,0.72-0.17c0.88-0.2,1.76-0.38,2.65-0.57c0.39-0.08,0.78-0.17,1.17-0.25c0.83-0.17,1.67-0.33,2.51-0.49
					c0.45-0.08,0.89-0.17,1.34-0.25c0.8-0.15,1.61-0.28,2.42-0.42c0.48-0.08,0.97-0.16,1.45-0.24c0.78-0.12,1.56-0.24,2.35-0.36
					c0.52-0.08,1.03-0.15,1.55-0.22c0.76-0.1,1.52-0.2,2.28-0.3c0.55-0.07,1.1-0.14,1.66-0.2c0.73-0.09,1.46-0.17,2.2-0.24
					c0.59-0.06,1.18-0.12,1.78-0.17c0.7-0.07,1.4-0.13,2.1-0.19c0.64-0.05,1.28-0.1,1.92-0.15c0.66-0.05,1.32-0.1,1.98-0.14
					c0.71-0.04,1.42-0.08,2.12-0.12c0.6-0.03,1.2-0.07,1.8-0.09c0.83-0.03,1.66-0.06,2.5-0.08c0.48-0.01,0.97-0.03,1.45-0.04
					c1.04-0.02,2.08-0.03,3.12-0.03v52.22H51.26C51.27,105.32,51.28,103.95,51.32,102.58z M116.3,160.58
					c-0.48-0.01-0.97-0.03-1.45-0.04c-0.83-0.02-1.67-0.05-2.5-0.08c-0.6-0.03-1.19-0.06-1.79-0.09c-0.71-0.04-1.42-0.07-2.13-0.12
					c-0.66-0.04-1.32-0.09-1.98-0.14c-0.64-0.05-1.28-0.09-1.92-0.15c-0.7-0.06-1.4-0.12-2.1-0.19c-0.59-0.06-1.19-0.11-1.78-0.18
					c-0.73-0.08-1.47-0.16-2.2-0.24c-0.55-0.06-1.1-0.13-1.65-0.2c-0.76-0.1-1.52-0.19-2.28-0.3c-0.52-0.07-1.03-0.15-1.55-0.22
					c-0.78-0.12-1.57-0.23-2.35-0.36c-0.49-0.08-0.97-0.16-1.45-0.24c-0.8-0.14-1.61-0.27-2.41-0.42c-0.45-0.08-0.9-0.17-1.35-0.26
					c-0.83-0.16-1.66-0.31-2.49-0.48c-0.4-0.08-0.8-0.17-1.2-0.25c-0.88-0.18-1.75-0.37-2.62-0.56c-0.25-0.06-0.51-0.12-0.76-0.18
					c-2.94-0.68-5.87-1.43-8.78-2.25c-0.54-0.15-1.08-0.3-1.62-0.46c-0.64-0.19-1.27-0.38-1.9-0.57c-0.63-0.19-1.27-0.38-1.9-0.58
					c-0.59-0.19-1.17-0.38-1.76-0.57c-0.53-0.17-1.06-0.35-1.58-0.52c-3.05-1.07-5.34-3.68-5.97-6.86c-0.32-1.62-0.62-3.25-0.9-4.88
					c-0.07-0.43-0.14-0.86-0.21-1.28c-0.2-1.2-0.39-2.4-0.56-3.6c-0.08-0.58-0.16-1.16-0.23-1.74c-0.14-1.06-0.28-2.11-0.4-3.17
					c-0.07-0.64-0.14-1.28-0.21-1.92c-0.11-1.01-0.21-2.01-0.3-3.02c-0.06-0.66-0.12-1.33-0.17-1.99c-0.08-1.01-0.15-2.02-0.21-3.04
					c-0.04-0.65-0.08-1.29-0.12-1.94c-0.06-1.1-0.1-2.21-0.14-3.32c-0.02-0.55-0.05-1.1-0.06-1.64c-0.04-1.37-0.05-2.75-0.06-4.12
					h68.16v52.22C118.38,160.6,117.34,160.6,116.3,160.58z M189.23,112.51c-0.01,0.55-0.04,1.1-0.06,1.64
					c-0.04,1.11-0.08,2.21-0.14,3.32c-0.03,0.65-0.08,1.29-0.12,1.94c-0.06,1.01-0.13,2.03-0.21,3.04c-0.05,0.67-0.11,1.33-0.17,2
					c-0.09,1.01-0.19,2.01-0.3,3.02c-0.07,0.64-0.14,1.29-0.21,1.93c-0.12,1.06-0.26,2.11-0.4,3.17c-0.08,0.58-0.15,1.16-0.24,1.74
					c-0.17,1.2-0.36,2.4-0.56,3.6c-0.07,0.43-0.13,0.86-0.21,1.28c-0.28,1.63-0.58,3.26-0.9,4.88c-0.64,3.17-2.92,5.79-5.97,6.86
					c-0.53,0.18-1.05,0.35-1.58,0.52c-0.59,0.19-1.17,0.38-1.76,0.57c-0.63,0.2-1.27,0.39-1.9,0.58c-0.63,0.19-1.27,0.39-1.9,0.57
					c-0.54,0.16-1.08,0.3-1.62,0.46c-2.91,0.82-5.83,1.57-8.78,2.25c-0.25,0.06-0.51,0.12-0.76,0.18c-0.87,0.2-1.75,0.38-2.62,0.56
					c-0.4,0.08-0.8,0.17-1.2,0.25c-0.83,0.17-1.66,0.33-2.49,0.48c-0.45,0.09-0.9,0.17-1.35,0.26c-0.8,0.15-1.61,0.28-2.41,0.42
					c-0.49,0.08-0.97,0.16-1.46,0.24c-0.78,0.12-1.56,0.24-2.35,0.36c-0.52,0.08-1.03,0.15-1.55,0.22c-0.76,0.1-1.52,0.2-2.28,0.3
					c-0.55,0.07-1.1,0.14-1.65,0.2c-0.73,0.09-1.46,0.17-2.2,0.24c-0.59,0.06-1.18,0.12-1.78,0.18c-0.7,0.07-1.4,0.13-2.1,0.19
					c-0.64,0.05-1.28,0.1-1.92,0.15c-0.66,0.05-1.32,0.1-1.98,0.14c-0.71,0.04-1.42,0.08-2.13,0.12c-0.6,0.03-1.19,0.06-1.79,0.09
					c-0.83,0.03-1.67,0.06-2.5,0.08c-0.48,0.01-0.97,0.03-1.45,0.04c-1.04,0.02-2.08,0.03-3.12,0.03v-52.22h68.16
					C189.28,109.76,189.26,111.14,189.23,112.51z"/>
			</g>
			<g>
				<path class="st7" d="M120.27,54.46c22.14,0,43.78,3.84,64.35,11.41c3.1,13.58,4.68,27.6,4.68,41.68
					c0,14.07-1.57,28.09-4.68,41.66c-20.57,7.57-42.21,11.41-64.35,11.41c-22.14,0-43.78-3.84-64.35-11.41
					c-3.1-13.58-4.68-27.59-4.68-41.66c0-14.09,1.57-28.11,4.68-41.68C76.5,58.3,98.14,54.46,120.27,54.46 M120.27,52.76
					c-23.15,0-45.32,4.18-65.8,11.82c-3.22,13.79-4.93,28.18-4.93,42.96c0,14.78,1.7,29.15,4.93,42.94
					c20.48,7.65,42.65,11.83,65.8,11.83s45.32-4.18,65.8-11.83c3.22-13.79,4.93-28.16,4.93-42.94c0-14.78-1.7-29.16-4.93-42.95
					C165.59,56.94,143.42,52.76,120.27,52.76L120.27,52.76z"/>
			</g>
			<g>
				<path class="st7" d="M120.27,54.46c22.14,0,43.78,3.84,64.35,11.41c3.1,13.58,4.68,27.6,4.68,41.68
					c0,14.07-1.57,28.09-4.68,41.66c-20.57,7.57-42.21,11.41-64.35,11.41c-22.14,0-43.78-3.84-64.35-11.41
					c-3.1-13.58-4.68-27.59-4.68-41.66c0-14.09,1.57-28.11,4.68-41.68C76.5,58.3,98.14,54.46,120.27,54.46 M120.27,52.76
					c-23.15,0-45.32,4.18-65.8,11.82c-3.22,13.79-4.93,28.18-4.93,42.96c0,14.78,1.7,29.15,4.93,42.94
					c20.48,7.65,42.65,11.83,65.8,11.83s45.32-4.18,65.8-11.83c3.22-13.79,4.93-28.16,4.93-42.94c0-14.78-1.7-29.16-4.93-42.95
					C165.59,56.94,143.42,52.76,120.27,52.76L120.27,52.76z"/>
			</g>
			<g>
				<path class="st7" d="M120.27,54.46c22.14,0,43.78,3.84,64.35,11.41c3.1,13.58,4.68,27.6,4.68,41.68
					c0,14.07-1.57,28.09-4.68,41.66c-20.57,7.57-42.21,11.41-64.35,11.41c-22.14,0-43.78-3.84-64.35-11.41
					c-3.1-13.58-4.68-27.59-4.68-41.66c0-14.09,1.57-28.11,4.68-41.68C76.5,58.3,98.14,54.46,120.27,54.46 M120.27,52.76
					c-23.15,0-45.32,4.18-65.8,11.82c-3.22,13.79-4.93,28.18-4.93,42.96c0,14.78,1.7,29.15,4.93,42.94
					c20.48,7.65,42.65,11.83,65.8,11.83s45.32-4.18,65.8-11.83c3.22-13.79,4.93-28.16,4.93-42.94c0-14.78-1.7-29.16-4.93-42.95
					C165.59,56.94,143.42,52.76,120.27,52.76L120.27,52.76z"/>
			</g>
			<g>
				<g>
					<path class="st8" d="M186.8,155.54c-21.27,7.83-43.65,11.78-66.53,11.78S75,163.37,53.74,155.54l-8.8,15.95l1.48,0.55
						c23.59,8.81,48.44,13.28,73.85,13.28c25.41,0,50.25-4.47,73.85-13.28l1.48-0.55L186.8,155.54z"/>
				</g>
				<g>
					<path d="M105.11,174.99l-0.9-0.99l-4.15-0.37l-3.53-0.39c-2.07-0.26-4.14-0.51-6.2-0.84l-0.29-0.04l-0.16-0.44
						c0.03-0.13,0.1-0.24,0.19-0.35c0.09-0.11,0.2-0.21,0.33-0.29c0.13-0.09,0.27-0.16,0.42-0.23c0.15-0.06,0.31-0.11,0.47-0.15
						c0.16-0.04,0.31-0.06,0.46-0.08s0.29-0.01,0.41,0.01c0.29,0.04,0.58,0.11,0.85,0.22c0.27,0.1,0.53,0.25,0.77,0.43
						c0.28,0.2,0.52,0.4,0.74,0.6c0.22,0.2,0.42,0.4,0.6,0.61l0.23-0.11l-0.1-0.44c-1.06-1.38-2.24-2.14-3.55-2.34
						c-0.17-0.03-0.36-0.03-0.56-0.01s-0.4,0.07-0.6,0.13c-0.2,0.07-0.39,0.15-0.58,0.25c-0.19,0.1-0.35,0.22-0.51,0.35
						c-0.15,0.13-0.28,0.28-0.38,0.44c-0.1,0.16-0.17,0.33-0.2,0.51c-0.03,0.2,0.03,0.4,0.19,0.62l0.11,0.13l-1.03-0.16
						c-2.62-0.43-5.24-0.91-7.85-1.43c0.01-0.02,0.01-0.03,0.01-0.03l0-0.01l0-0.01c0,0,0-0.01,0-0.03c0.06-0.3,0.05-0.56-0.04-0.8
						c-0.09-0.23-0.22-0.45-0.41-0.62c-0.18-0.18-0.4-0.33-0.65-0.44c-0.25-0.12-0.51-0.2-0.78-0.26c-0.16-0.03-0.32-0.06-0.48-0.08
						l-0.47-0.06l-0.44-0.05c-0.15-0.02-0.3-0.04-0.44-0.08c-0.09-0.02-0.19-0.05-0.28-0.1c-0.09-0.05-0.18-0.1-0.25-0.17
						s-0.13-0.14-0.17-0.22c-0.04-0.08-0.05-0.17-0.03-0.25c0.02-0.08,0.09-0.15,0.21-0.21c0.01-0.05,0.02-0.09,0.03-0.12
						c0.01-0.03,0.01-0.07,0.02-0.1c0-0.03,0-0.07,0-0.11c0-0.04-0.01-0.08-0.01-0.13l-0.12-0.03c-0.1-0.02-0.19-0.01-0.28,0.03
						s-0.16,0.11-0.23,0.19c-0.07,0.08-0.12,0.16-0.17,0.25c-0.04,0.09-0.07,0.17-0.09,0.23c-0.06,0.26-0.05,0.5,0.04,0.73
						c0.09,0.22,0.22,0.42,0.4,0.59c0.18,0.17,0.38,0.32,0.61,0.43c0.23,0.11,0.46,0.19,0.69,0.24c0.16,0.03,0.32,0.06,0.48,0.09
						l0.48,0.06l0.45,0.06c0.15,0.02,0.3,0.05,0.45,0.08c0.06,0.01,0.13,0.04,0.2,0.07s0.14,0.07,0.2,0.12s0.11,0.1,0.14,0.16
						c0.04,0.06,0.05,0.12,0.03,0.19c-0.01,0.03-0.02,0.07-0.02,0.09l-0.02,0.08l0,0.02c-1.68-0.36-3.36-0.72-5.03-1.12
						c-1.32-0.31-2.64-0.63-3.96-0.98c-1.94-0.5-3.87-1.03-5.8-1.58l-0.58-0.16l-0.1-0.46c0.05-0.12,0.13-0.23,0.23-0.32
						c0.11-0.1,0.23-0.18,0.37-0.25c0.14-0.07,0.29-0.13,0.45-0.17c0.16-0.04,0.32-0.08,0.48-0.09c0.16-0.02,0.32-0.02,0.47-0.02
						s0.29,0.03,0.41,0.06c0.29,0.08,0.55,0.19,0.81,0.33c0.25,0.14,0.49,0.32,0.7,0.53c0.25,0.24,0.46,0.47,0.66,0.7
						c0.19,0.22,0.37,0.45,0.52,0.68l0.25-0.08l-0.04-0.44c-0.88-1.48-1.92-2.44-3.2-2.79c-0.17-0.05-0.35-0.07-0.55-0.07
						c-0.2,0-0.4,0.02-0.61,0.06c-0.2,0.04-0.41,0.09-0.6,0.17c-0.2,0.07-0.38,0.17-0.55,0.28c-0.17,0.11-0.31,0.24-0.43,0.39
						s-0.21,0.3-0.26,0.48c-0.06,0.19-0.02,0.4,0.11,0.64l0.09,0.15l-1.29-0.39c-0.09-0.08-0.14-0.15-0.15-0.2
						c-0.01-0.06-0.01-0.17,0.03-0.34l-0.04-0.13l-0.44-0.58c-0.02,0.05-0.04,0.11-0.06,0.19l-0.08,0.25
						c-0.03,0.08-0.05,0.16-0.08,0.24c-0.02,0.08-0.04,0.14-0.06,0.19l-0.03,0.1c-0.06,0.2-0.12,0.41-0.19,0.64
						c-0.07,0.22-0.13,0.47-0.19,0.74c-0.06-0.21-0.14-0.42-0.24-0.61c-0.1-0.2-0.23-0.38-0.37-0.55c-0.14-0.17-0.3-0.32-0.48-0.45
						s-0.38-0.23-0.6-0.3c-0.14-0.04-0.3-0.07-0.48-0.09c-0.19-0.01-0.39-0.01-0.59,0.01c-0.21,0.02-0.42,0.05-0.63,0.1
						c-0.21,0.05-0.41,0.12-0.59,0.2c-0.18,0.08-0.34,0.18-0.47,0.3c-0.13,0.12-0.23,0.25-0.28,0.41c-0.02,0.07-0.03,0.15-0.02,0.23
						c0.01,0.08,0.03,0.16,0.07,0.23c0.04,0.07,0.09,0.14,0.15,0.2s0.13,0.1,0.21,0.13c0.15,0.05,0.32,0.06,0.5,0.03
						c0.14-0.02,0.26-0.02,0.35,0.01c0.05,0.02,0.09,0.05,0.11,0.09c0.02,0.04,0.04,0.09,0.04,0.14c0,0.05,0,0.11-0.01,0.16
						c-0.01,0.05-0.02,0.1-0.03,0.14c-0.02,0.05-0.04,0.09-0.08,0.13s-0.08,0.07-0.13,0.11c-0.05,0.03-0.11,0.06-0.17,0.09
						l-0.18,0.08l-0.07,0.03c-0.02,0.01-0.05,0.02-0.09,0.04c-0.03,0.02-0.07,0.04-0.12,0.06c-0.05,0.02-0.11,0.06-0.18,0.09
						l1.04,0.79l2.6-1.26c0.04,0.07,0.08,0.15,0.11,0.25s0.06,0.2,0.09,0.3c0.02,0.1,0.04,0.2,0.04,0.29c0.01,0.09,0,0.16-0.02,0.22
						c-0.03,0.14-0.06,0.23-0.07,0.29l-0.16,0.52c-0.05,0.14-0.12,0.35-0.22,0.66l-0.58,1.78l0.68,1.15l1.89-6.2l0.63,0.19l0,0
						l0.22,0.07l0.59,0.18l-1.63,5.5l0.66,1.19l1.87-6.42l0.84,0.24l0,0c0.16,0.05,0.33,0.09,0.49,0.14l0.23,0.07l0,0
						c1.32,0.37,2.63,0.75,3.96,1.08l-0.21,0.8c-0.08-0.2-0.18-0.36-0.32-0.48c-0.14-0.12-0.3-0.2-0.51-0.25
						c-0.08-0.02-0.16-0.02-0.25-0.01c-0.09,0.01-0.18,0.03-0.27,0.06c-0.09,0.03-0.17,0.07-0.25,0.12
						c-0.08,0.05-0.14,0.1-0.19,0.15c-0.27-0.49-0.65-0.8-1.14-0.94c-0.24-0.07-0.47-0.07-0.69-0.02c-0.22,0.06-0.41,0.16-0.58,0.29
						c-0.17,0.14-0.32,0.3-0.44,0.5s-0.21,0.39-0.27,0.6c-0.08,0.26-0.1,0.52-0.06,0.76c0.04,0.24,0.12,0.47,0.24,0.67
						c0.13,0.2,0.3,0.38,0.51,0.53c0.21,0.15,0.46,0.26,0.73,0.34c0.13,0.04,0.27,0.06,0.41,0.06c0.14,0,0.27-0.02,0.4-0.06
						c0.12-0.04,0.23-0.1,0.33-0.19c0.09-0.08,0.16-0.2,0.19-0.33c0.03-0.13,0.05-0.26,0.04-0.4c-0.01-0.14-0.04-0.28-0.09-0.4
						c-0.05-0.13-0.13-0.24-0.22-0.34c-0.1-0.1-0.22-0.17-0.37-0.21c-0.11-0.03-0.22-0.04-0.34-0.03c-0.11,0.01-0.22,0.04-0.32,0.09
						s-0.18,0.11-0.25,0.19s-0.12,0.17-0.15,0.28c-0.01,0.04-0.02,0.08-0.02,0.12l-0.01,0.12c-0.22-0.18-0.3-0.41-0.22-0.68
						c0.04-0.13,0.09-0.24,0.18-0.33c0.08-0.1,0.18-0.17,0.29-0.23s0.23-0.09,0.36-0.11s0.26,0,0.4,0.03
						c0.17,0.05,0.32,0.12,0.45,0.21s0.23,0.2,0.31,0.33c0.08,0.13,0.13,0.27,0.17,0.42c0.03,0.15,0.04,0.31,0.03,0.47l0.59-0.04
						c0.01-0.11,0.03-0.21,0.04-0.29c0.01-0.08,0.03-0.15,0.04-0.2c0.07-0.28,0.23-0.39,0.46-0.33c0.08,0.02,0.16,0.06,0.22,0.11
						c0.07,0.05,0.12,0.12,0.16,0.19c0.04,0.07,0.07,0.15,0.08,0.23s0.01,0.16-0.01,0.24l-0.86,3.31l0.75,1.1l1.59-6.21l1.25,0.32
						l0-0.01l0.76,0.19c-0.18,0.12-0.36,0.26-0.53,0.42c-0.17,0.16-0.34,0.32-0.48,0.5c-0.15,0.18-0.28,0.37-0.39,0.57
						c-0.11,0.2-0.19,0.4-0.24,0.61l-0.08,0.33c-0.06,0.25-0.1,0.5-0.12,0.77s-0.01,0.52,0.03,0.78c0.04,0.26,0.11,0.51,0.21,0.75
						c0.1,0.24,0.24,0.47,0.41,0.69l-0.01,0c0.11,0.14,0.25,0.26,0.43,0.35c0.18,0.09,0.36,0.16,0.55,0.21
						c0.15,0.04,0.33,0.04,0.53,0.02c0.17-0.02,0.31-0.06,0.43-0.11c0.12-0.05,0.22-0.12,0.29-0.19c0.08-0.07,0.14-0.16,0.19-0.24
						s0.08-0.18,0.1-0.26c0.04-0.18,0.03-0.36-0.03-0.51c-0.07-0.16-0.17-0.3-0.32-0.42l0,0c-0.1-0.09-0.22-0.15-0.37-0.18
						l-0.03-0.01c-0.12-0.03-0.24-0.04-0.36-0.03s-0.22,0.04-0.32,0.09c-0.1,0.05-0.18,0.12-0.25,0.2c-0.07,0.09-0.12,0.19-0.15,0.3
						c-0.02,0.07-0.02,0.14-0.01,0.23c0.01,0.09,0.03,0.17,0.06,0.26c-0.24-0.15-0.38-0.37-0.44-0.66c-0.03-0.15-0.05-0.28-0.07-0.4
						s-0.02-0.24-0.02-0.36s0.01-0.24,0.03-0.36s0.04-0.25,0.08-0.39c0.05-0.22,0.13-0.44,0.23-0.64s0.22-0.4,0.36-0.58
						s0.3-0.34,0.49-0.49c0.18-0.15,0.39-0.27,0.61-0.36c0.18-0.07,0.49-0.15,0.91-0.22l0.73-0.07l0.61,0.15l-0.77,3.38
						c-0.08,0.35-0.13,0.66-0.15,0.93c-0.02,0.27,0,0.5,0.08,0.71c0.07,0.2,0.21,0.37,0.41,0.5c0.2,0.13,0.47,0.24,0.82,0.31
						c0.16,0.03,0.33,0.04,0.5,0.02c0.17-0.02,0.36-0.06,0.54-0.12c0.19-0.06,0.37-0.14,0.57-0.24c0.19-0.1,0.39-0.22,0.59-0.35
						c0.4-0.26,0.71-0.54,0.93-0.84c0.22-0.3,0.36-0.61,0.42-0.92c0.03-0.16,0.04-0.33,0.01-0.49c-0.02-0.17-0.07-0.32-0.15-0.47
						c-0.04-0.07-0.09-0.15-0.15-0.23c-0.06-0.08-0.13-0.15-0.2-0.22s-0.16-0.12-0.25-0.17c-0.09-0.05-0.18-0.08-0.27-0.1
						c-0.19-0.04-0.36-0.05-0.52-0.03s-0.29,0.07-0.4,0.15c-0.11,0.08-0.21,0.17-0.28,0.29c-0.08,0.12-0.13,0.25-0.16,0.4
						c-0.03,0.13-0.03,0.26,0,0.37c0.03,0.11,0.09,0.21,0.16,0.3s0.17,0.16,0.28,0.23s0.23,0.11,0.36,0.15
						c-0.09,0.15-0.22,0.3-0.38,0.45s-0.34,0.29-0.54,0.4c-0.19,0.12-0.39,0.2-0.59,0.26c-0.2,0.06-0.38,0.07-0.54,0.04
						c-0.11-0.02-0.19-0.06-0.25-0.12c-0.06-0.06-0.07-0.14-0.05-0.25l0.92-4.11c1.48,0.32,2.95,0.64,4.43,0.93l0,0.01
						c1.32,0.25,2.64,0.53,3.97,0.75l-0.04,0.24c-0.32,0.04-0.66,0.1-1.02,0.18c-0.36,0.08-0.72,0.17-1.08,0.27
						c-0.36,0.11-0.72,0.23-1.07,0.36s-0.68,0.28-0.98,0.43l0.82,1.42c0.42,0.12,0.77,0.29,1.08,0.5c0.3,0.21,0.56,0.45,0.78,0.72
						c0.22,0.27,0.39,0.57,0.53,0.91s0.25,0.69,0.33,1.07l0.49,0.55l0.89-5.16l0.01,0c0.19,0.03,0.37,0.1,0.54,0.19
						c0.17,0.1,0.32,0.22,0.45,0.35s0.24,0.29,0.32,0.46c0.08,0.17,0.12,0.34,0.13,0.52c-0.11-0.1-0.22-0.17-0.32-0.2
						c-0.1-0.04-0.19-0.06-0.25-0.07c-0.13-0.02-0.25-0.02-0.36,0.01c-0.11,0.03-0.21,0.07-0.29,0.14
						c-0.08,0.06-0.16,0.15-0.21,0.24c-0.06,0.1-0.09,0.21-0.11,0.33c-0.02,0.12-0.01,0.25,0.03,0.37c0.04,0.12,0.1,0.23,0.18,0.33
						c0.08,0.1,0.18,0.18,0.29,0.25c0.12,0.07,0.24,0.12,0.37,0.14c0.2,0.03,0.38,0.03,0.55-0.03c0.17-0.05,0.33-0.13,0.47-0.24
						c0.14-0.11,0.26-0.23,0.36-0.38c0.1-0.15,0.18-0.3,0.23-0.46l0.02-0.1l0.02-0.1c0.05-0.32,0.02-0.64-0.08-0.95
						c-0.11-0.31-0.26-0.59-0.48-0.85c-0.21-0.26-0.46-0.49-0.75-0.68c-0.29-0.19-0.59-0.32-0.91-0.4l0.04-0.2
						c0.85,0.15,1.7,0.29,2.55,0.42l0.01,0.01l0.84,0.13l-0.88,5.67l0.81,1.09l1-6.62l0.85,0.13l0,0h0l0.76,0.12l-0.01-0.01
						c1.16,0.17,2.33,0.31,3.5,0.47l-0.31,2.45c-0.09-0.21-0.2-0.41-0.32-0.61s-0.26-0.38-0.43-0.54c-0.16-0.16-0.34-0.3-0.54-0.41
						c-0.2-0.11-0.43-0.18-0.68-0.22c-0.22-0.03-0.45-0.02-0.66,0.02c-0.22,0.05-0.41,0.12-0.59,0.24
						c-0.17,0.11-0.32,0.25-0.44,0.42c-0.12,0.17-0.2,0.36-0.23,0.59c-0.13,0.87,0.27,1.38,1.2,1.5c0.14,0.02,0.28,0.02,0.41,0
						s0.25-0.06,0.36-0.12c0.1-0.06,0.19-0.14,0.26-0.25c0.07-0.1,0.11-0.23,0.13-0.37c0.01-0.09,0.02-0.18,0.01-0.25
						c0-0.07-0.02-0.14-0.03-0.2c-0.02-0.06-0.04-0.13-0.08-0.19c-0.03-0.06-0.07-0.13-0.11-0.21c0.29,0.06,0.55,0.22,0.77,0.49
						c0.18,0.21,0.33,0.46,0.47,0.74s0.25,0.58,0.33,0.89c0.09,0.31,0.15,0.62,0.18,0.93c0.03,0.31,0.03,0.59,0,0.84l-0.02,0.11
						l-0.03,0.11l0.51,0.54l0.77-6.38l0.56,0.06c1.33,0.14,2.65,0.31,3.98,0.43l-0.02,0.25c-0.32,0.06-0.66,0.16-1.01,0.26
						c-0.35,0.1-0.7,0.22-1.06,0.36c-0.35,0.14-0.7,0.28-1.04,0.44c-0.34,0.16-0.65,0.33-0.94,0.51l0.93,1.35
						c0.42,0.09,0.79,0.23,1.11,0.41c0.32,0.18,0.6,0.4,0.83,0.66c0.24,0.25,0.44,0.54,0.6,0.86c0.16,0.32,0.3,0.67,0.42,1.04
						l0.54,0.51l0.48-5.22l0.01,0c0.19,0.02,0.37,0.07,0.55,0.15s0.34,0.19,0.48,0.32c0.14,0.13,0.26,0.27,0.35,0.43
						s0.15,0.33,0.17,0.51c-0.12-0.09-0.23-0.15-0.33-0.17s-0.19-0.04-0.26-0.05c-0.13-0.01-0.25,0-0.36,0.04
						c-0.11,0.04-0.2,0.09-0.28,0.16c-0.08,0.07-0.14,0.16-0.19,0.26c-0.05,0.1-0.08,0.21-0.09,0.34c-0.01,0.13,0.01,0.25,0.06,0.36
						c0.05,0.12,0.12,0.22,0.21,0.31s0.19,0.17,0.31,0.23c0.12,0.06,0.25,0.1,0.38,0.11c0.2,0.02,0.38-0.01,0.55-0.07
						c0.17-0.06,0.32-0.15,0.45-0.27c0.13-0.12,0.24-0.25,0.33-0.41c0.09-0.16,0.15-0.31,0.19-0.47l0.02-0.1l0.01-0.1
						c0.03-0.33-0.03-0.64-0.16-0.94c-0.13-0.3-0.31-0.58-0.54-0.82c-0.23-0.24-0.5-0.45-0.8-0.62c-0.3-0.17-0.61-0.28-0.94-0.33
						l0.02-0.2C102.81,174.8,103.96,174.92,105.11,174.99z M58.06,167.2c0.01-0.09,0-0.19-0.02-0.29c-0.02-0.1-0.05-0.19-0.1-0.28
						c-0.04-0.09-0.1-0.18-0.16-0.25s-0.14-0.14-0.22-0.19c0.18-0.13,0.37-0.2,0.58-0.21s0.43,0.02,0.67,0.1
						c0.27,0.09,0.47,0.25,0.6,0.49L58.06,167.2z M84.15,176.28c-0.18-0.36-0.4-0.68-0.66-0.97c-0.25-0.29-0.55-0.56-0.9-0.8
						c0.32-0.13,0.64-0.25,0.97-0.36c0.33-0.11,0.66-0.2,1.01-0.26L84.15,176.28z M100.32,178.5c-0.21-0.34-0.46-0.65-0.73-0.92
						c-0.28-0.27-0.6-0.52-0.96-0.73c0.31-0.16,0.62-0.3,0.94-0.43c0.32-0.13,0.65-0.25,0.99-0.34L100.32,178.5z"/>
					<path d="M153.09,172.01l-0.47,0.08c0-0.02,0-0.04,0-0.04l0-0.01l0-0.01c0,0,0-0.01-0.01-0.03c-0.05-0.3-0.16-0.54-0.32-0.74
						c-0.17-0.19-0.37-0.34-0.6-0.44c-0.23-0.1-0.49-0.16-0.76-0.18c-0.28-0.02-0.55-0.01-0.82,0.03c-0.16,0.02-0.32,0.06-0.47,0.09
						l-0.46,0.11l-0.43,0.11c-0.15,0.03-0.29,0.06-0.44,0.08c-0.09,0.01-0.19,0.01-0.3,0c-0.1-0.01-0.2-0.03-0.29-0.07
						c-0.09-0.04-0.17-0.08-0.23-0.15s-0.1-0.14-0.12-0.23c-0.01-0.08,0.03-0.17,0.12-0.27c-0.01-0.05-0.01-0.09-0.02-0.13
						c0-0.04-0.01-0.07-0.02-0.1c-0.01-0.03-0.02-0.07-0.04-0.1c-0.02-0.03-0.04-0.07-0.06-0.12l-0.12,0.02
						c-0.1,0.01-0.19,0.06-0.25,0.13c-0.06,0.07-0.11,0.16-0.15,0.26c-0.04,0.1-0.06,0.2-0.07,0.3c-0.01,0.1-0.01,0.18,0,0.25
						c0.04,0.27,0.13,0.49,0.29,0.66c0.16,0.18,0.35,0.31,0.58,0.41c0.23,0.1,0.47,0.16,0.73,0.19c0.26,0.03,0.5,0.03,0.73-0.01
						c0.16-0.02,0.32-0.05,0.48-0.09l0.47-0.11l0.45-0.1c0.15-0.03,0.3-0.06,0.45-0.08c0.06-0.01,0.13-0.01,0.21-0.01
						c0.08,0,0.16,0.02,0.23,0.04s0.14,0.05,0.19,0.1c0.05,0.04,0.09,0.1,0.1,0.17c0,0.04,0.01,0.07,0.01,0.09l0.01,0.09l0,0.02
						c-1.78,0.28-3.56,0.54-5.34,0.76h0l-0.39,0.05c-0.04-0.24-0.13-0.45-0.27-0.64c-0.13-0.18-0.3-0.34-0.49-0.46
						c-0.19-0.12-0.41-0.2-0.65-0.26c-0.24-0.06-0.48-0.07-0.73-0.05c-0.13,0.02-0.29,0.04-0.48,0.07c-0.19,0.03-0.39,0.06-0.6,0.09
						c-0.21,0.03-0.41,0.06-0.59,0.09c-0.19,0.03-0.35,0.05-0.47,0.07l-0.17,0.02c-0.13,0.01-0.26,0.02-0.39,0.03
						c-0.13,0-0.25-0.01-0.36-0.04c-0.11-0.03-0.2-0.08-0.28-0.16c-0.08-0.08-0.12-0.19-0.13-0.33c-0.01-0.13,0.06-0.3,0.22-0.53
						l-0.63-0.14c-0.08,0.08-0.14,0.16-0.18,0.24s-0.07,0.17-0.09,0.26c-0.02,0.09-0.03,0.18-0.03,0.27c0,0.09,0,0.17,0.01,0.25
						c0.01,0.14,0.06,0.27,0.12,0.4c0.07,0.12,0.16,0.23,0.26,0.33c0.11,0.1,0.23,0.19,0.37,0.27c0.14,0.08,0.28,0.14,0.43,0.19
						c0.15,0.05,0.29,0.08,0.44,0.1c0.15,0.02,0.29,0.02,0.42,0c0.17-0.02,0.38-0.05,0.63-0.08c0.24-0.04,0.49-0.08,0.75-0.12
						c0.26-0.04,0.51-0.08,0.75-0.11c0.24-0.03,0.45-0.06,0.62-0.08c0.17-0.02,0.29,0.02,0.38,0.11c0.09,0.09,0.15,0.21,0.18,0.35
						c-2,0.22-4,0.47-6.01,0.63c0-0.02,0-0.04,0-0.04l0-0.01l0-0.01c0,0,0-0.01-0.01-0.03c-0.03-0.3-0.12-0.55-0.27-0.75
						c-0.15-0.2-0.34-0.36-0.57-0.48c-0.23-0.12-0.48-0.19-0.75-0.23c-0.27-0.04-0.55-0.04-0.82-0.02c-0.05,0-0.1,0.01-0.15,0.02
						c-0.83-0.51-1.65-0.79-2.48-0.81c0-0.01-0.01-0.03-0.01-0.04c-0.01-0.03-0.03-0.07-0.05-0.12l-0.12,0.01
						c-0.1,0.01-0.19,0.05-0.26,0.12c-0.01,0.01-0.02,0.03-0.03,0.04c-0.17,0.01-0.34,0.05-0.52,0.11
						c-0.19,0.07-0.37,0.15-0.55,0.26c-0.18,0.1-0.35,0.22-0.51,0.36c-0.16,0.14-0.3,0.29-0.42,0.45c-0.12,0.16-0.21,0.33-0.28,0.51
						c-0.07,0.18-0.1,0.36-0.09,0.54c0.01,0.2,0.12,0.39,0.32,0.57l0.14,0.11l-1.23,0.06c-0.02-0.15-0.04-0.29-0.08-0.41
						c-0.04-0.12-0.09-0.24-0.16-0.34c-0.07-0.1-0.15-0.2-0.26-0.29s-0.22-0.18-0.36-0.26l0,0c-0.16-0.1-0.34-0.16-0.54-0.19
						c-0.2-0.02-0.43-0.03-0.68-0.02c-0.14,0-0.28,0.01-0.41,0.03c-0.14,0.02-0.28,0.03-0.42,0.05l-0.39,0.05
						c-0.13,0.01-0.25,0.02-0.37,0.03c-0.09,0-0.18,0-0.26,0s-0.15-0.02-0.22-0.03c-0.14-0.05-0.26-0.11-0.35-0.18
						c-0.09-0.08-0.14-0.16-0.14-0.26c0-0.04,0.01-0.08,0.05-0.12c0.03-0.04,0.07-0.09,0.11-0.14l-0.08-0.42
						c-0.14,0.04-0.24,0.07-0.3,0.1c-0.06,0.03-0.1,0.06-0.13,0.08l-0.02,0.02c-0.15,0.18-0.22,0.4-0.22,0.67
						c0,0.06,0.01,0.11,0.03,0.17c-0.99-0.72-1.99-1.09-3.02-1.08c-0.17,0-0.36,0.03-0.55,0.08c-0.19,0.05-0.38,0.13-0.57,0.23
						c-0.19,0.1-0.36,0.21-0.53,0.34c-0.17,0.13-0.32,0.27-0.45,0.42s-0.23,0.32-0.31,0.49s-0.12,0.35-0.12,0.53
						c0,0.2,0.09,0.39,0.28,0.59l0.13,0.11l-0.75-0.01l0,0c-2.12-0.01-4.23-0.06-6.35-0.13l0,0l-0.14,0c0-0.24-0.05-0.47-0.14-0.67
						c-0.09-0.2-0.22-0.38-0.37-0.53c-0.16-0.15-0.34-0.27-0.56-0.37c-0.22-0.09-0.45-0.14-0.71-0.16c-0.13,0-0.27-0.01-0.41-0.01
						l-0.42,0.01c-0.14,0-0.27,0-0.41,0l-0.4-0.01l-0.16-0.01c-0.13-0.01-0.26-0.02-0.39-0.03c-0.13-0.02-0.25-0.05-0.36-0.09
						c-0.11-0.05-0.19-0.11-0.26-0.2c-0.06-0.09-0.09-0.2-0.08-0.35c0.01-0.12,0.11-0.29,0.31-0.49l-0.62-0.24
						c-0.08,0.07-0.13,0.14-0.18,0.22c-0.04,0.08-0.08,0.15-0.1,0.23s-0.04,0.16-0.05,0.24c-0.01,0.08-0.01,0.16-0.02,0.23l0,0.06
						c-0.01,0.21,0.03,0.42,0.13,0.6s0.24,0.35,0.41,0.5c0.17,0.15,0.36,0.26,0.57,0.34c0.21,0.08,0.42,0.13,0.62,0.14
						c0.18,0,0.37,0.01,0.56,0.01l0.57,0c0.19,0,0.38,0,0.57,0l0.55,0.02c0.16,0.01,0.28,0.06,0.35,0.17
						c0.07,0.1,0.11,0.23,0.12,0.37c-1.77-0.1-3.54-0.16-5.3-0.3l0.75,0.98c0.69,0.05,1.38,0.09,2.06,0.12l0.01,0.01l0.02,0.01
						c0.03,0.02,0.07,0.04,0.11,0.06c0.04,0.03,0.07,0.05,0.1,0.06c-0.16,0.05-0.33,0.11-0.51,0.18s-0.34,0.15-0.48,0.25
						c-0.14,0.1-0.27,0.22-0.36,0.37c-0.1,0.14-0.15,0.32-0.17,0.52c-0.01,0.14,0.01,0.27,0.05,0.37c0.04,0.1,0.1,0.19,0.18,0.25
						c0.08,0.07,0.17,0.12,0.29,0.15c0.11,0.03,0.24,0.05,0.37,0.06c0.16,0.01,0.33-0.02,0.49-0.07s0.32-0.14,0.45-0.24
						s0.26-0.22,0.35-0.36c0.1-0.14,0.16-0.28,0.18-0.44c0.05-0.01,0.11-0.01,0.17-0.01c0.12,0.01,0.22,0.04,0.32,0.09
						s0.17,0.12,0.24,0.2s0.12,0.17,0.15,0.27s0.05,0.2,0.05,0.31c0,0.08-0.02,0.15-0.05,0.2c-0.09,0.12-0.21,0.22-0.35,0.3
						c-0.15,0.08-0.31,0.14-0.48,0.19c-0.18,0.04-0.36,0.07-0.54,0.09c-0.18,0.01-0.35,0.02-0.51,0.01
						c-0.34-0.05-0.69-0.15-1.07-0.31c-0.38-0.16-0.77-0.38-1.18-0.66l0.93,2.16c0.21,0.05,0.39,0.1,0.56,0.14
						c0.16,0.05,0.32,0.09,0.47,0.14c0.14,0.05,0.28,0.1,0.42,0.15c0.13,0.05,0.26,0.11,0.4,0.17c0.13,0.07,0.27,0.14,0.42,0.22
						s0.31,0.18,0.48,0.3c0.4,0.25,0.79,0.53,1.18,0.81c0.38,0.28,0.76,0.6,1.12,0.97l0.24-0.11l-0.22-0.87
						c-0.22-0.24-0.44-0.47-0.67-0.7c-0.23-0.23-0.47-0.44-0.71-0.66c-0.08-0.06-0.15-0.13-0.22-0.19l-0.23-0.17
						c-0.08-0.05-0.17-0.11-0.26-0.17c-0.09-0.06-0.2-0.11-0.32-0.17c0.23-0.06,0.44-0.13,0.64-0.21c0.2-0.08,0.37-0.19,0.52-0.32
						c0.15-0.13,0.27-0.28,0.36-0.46c0.09-0.18,0.14-0.38,0.15-0.62c0.02-0.44-0.07-0.8-0.27-1.08c-0.16-0.23-0.36-0.43-0.59-0.6
						c-0.23-0.17-0.48-0.3-0.75-0.4c-0.08-0.02-0.14-0.05-0.17-0.06c-0.04-0.02-0.08-0.04-0.11-0.07c1.03,0.06,2.05,0.09,3.08,0.13
						l0,0c0.2,0.01,0.4,0.01,0.6,0.02c0.1,0,0.19,0.01,0.29,0.01l0,0c1.13,0.03,2.26,0.07,3.39,0.07l-0.03,2.47
						c-0.12-0.19-0.25-0.38-0.39-0.56s-0.31-0.34-0.48-0.49c-0.18-0.14-0.37-0.26-0.58-0.34c-0.21-0.09-0.44-0.14-0.7-0.15
						c-0.23-0.01-0.44,0.02-0.65,0.09c-0.21,0.07-0.39,0.16-0.56,0.29c-0.16,0.13-0.29,0.28-0.39,0.47s-0.15,0.39-0.16,0.61
						c-0.03,0.88,0.42,1.33,1.36,1.36c0.14,0,0.28-0.01,0.41-0.04s0.24-0.09,0.34-0.16c0.1-0.07,0.17-0.16,0.23-0.27
						c0.06-0.11,0.09-0.24,0.09-0.38c0-0.09,0-0.18-0.02-0.25c-0.01-0.07-0.03-0.14-0.06-0.2c-0.02-0.06-0.06-0.12-0.1-0.18
						c-0.04-0.06-0.09-0.13-0.14-0.2c0.3,0.03,0.57,0.15,0.82,0.39c0.2,0.19,0.38,0.41,0.55,0.68c0.17,0.27,0.31,0.55,0.43,0.85
						c0.12,0.3,0.21,0.6,0.28,0.9c0.07,0.3,0.1,0.58,0.1,0.84l-0.01,0.11c-0.01,0.04-0.01,0.07-0.02,0.11l0.57,0.48l0.05-6.42
						l1.25,0.01l-0.01,5.74l0.97,0.95l-0.02-6.69l0.6-0.01l0.14,0.14c0.24,0.13,0.48,0.21,0.72,0.25c0.04,0,0.09,0.01,0.15,0.02
						c0.06,0,0.14,0.01,0.24,0.02l0.05,0l0.05,0l0.09,0.01c0.02,0,0.05,0,0.07,0c0.02,0,0.04,0,0.06,0
						c0.19,0.01,0.34,0.04,0.46,0.11s0.22,0.14,0.29,0.25c0.07,0.1,0.13,0.22,0.16,0.35c0.03,0.13,0.06,0.27,0.07,0.42l-0.42,0.57
						c-0.1,0.15-0.2,0.27-0.3,0.35s-0.18,0.13-0.23,0.13c-0.04,0-0.09-0.02-0.13-0.06c-0.04-0.04-0.08-0.09-0.12-0.15
						c-0.04-0.06-0.07-0.12-0.1-0.19c-0.03-0.07-0.05-0.13-0.07-0.18l-0.09-0.3l-0.67,0.59c0.08,0.15,0.17,0.31,0.28,0.48
						s0.23,0.33,0.36,0.47c0.13,0.14,0.28,0.26,0.44,0.36c0.16,0.09,0.33,0.14,0.52,0.14c0.08,0,0.14-0.01,0.2-0.03
						s0.1-0.04,0.13-0.05c0.07-0.04,0.15-0.1,0.23-0.18c0.08-0.08,0.18-0.17,0.27-0.28c0.1-0.11,0.21-0.26,0.34-0.44
						c0.12-0.18,0.27-0.39,0.44-0.63c0.15-0.23,0.32-0.35,0.5-0.36c0.08,0,0.15,0.01,0.22,0.04c0.07,0.03,0.13,0.07,0.18,0.12
						s0.1,0.11,0.14,0.17c0.04,0.06,0.08,0.13,0.1,0.19c0.02,0.05,0.04,0.12,0.06,0.23c0.02,0.1,0.03,0.23,0.05,0.39l0.05,1.58
						c0.03,0.13,0.09,0.25,0.2,0.36c0.1,0.11,0.23,0.21,0.37,0.29c0.14,0.08,0.29,0.14,0.46,0.19c0.16,0.04,0.31,0.06,0.46,0.06
						c0.19-0.01,0.37-0.04,0.54-0.12c0.17-0.07,0.34-0.16,0.49-0.28c0.16-0.11,0.31-0.24,0.46-0.38c0.15-0.14,0.29-0.28,0.43-0.42
						c0.22-0.28,0.39-0.56,0.51-0.84c0.12-0.28,0.16-0.58,0.15-0.91c-0.01-0.17-0.04-0.34-0.1-0.49c-0.06-0.15-0.15-0.29-0.26-0.4
						c-0.11-0.11-0.24-0.2-0.4-0.27c-0.15-0.06-0.33-0.09-0.53-0.08c-0.13,0.01-0.25,0.04-0.36,0.09c-0.11,0.05-0.21,0.12-0.29,0.21
						c-0.08,0.08-0.14,0.18-0.19,0.29c-0.04,0.11-0.06,0.23-0.06,0.36c0,0.12,0.03,0.23,0.09,0.32s0.13,0.17,0.22,0.24
						c0.09,0.06,0.19,0.11,0.31,0.14c0.11,0.03,0.23,0.05,0.35,0.05l0.01,0c-0.04,0.18-0.13,0.36-0.26,0.54
						c-0.13,0.18-0.28,0.34-0.44,0.48c-0.16,0.14-0.32,0.25-0.48,0.34c-0.16,0.09-0.29,0.13-0.39,0.14
						c-0.22,0.01-0.34-0.08-0.34-0.26l-0.15-4.33c1.15-0.02,2.3-0.09,3.45-0.15l0.05,0.05l0.85-0.04l0.32,5.73l1.02,0.9l-0.4-6.68
						l0.81-0.06l0,0l0.84-0.06l0.23,3.46c0.02,0.36,0.06,0.67,0.12,0.94s0.15,0.48,0.28,0.65c0.13,0.17,0.31,0.29,0.53,0.36
						s0.52,0.1,0.87,0.07c0.16-0.01,0.33-0.05,0.49-0.12c0.16-0.07,0.32-0.15,0.48-0.27c0.16-0.11,0.32-0.25,0.47-0.4
						s0.31-0.32,0.46-0.51c0.31-0.37,0.52-0.73,0.64-1.08c0.12-0.35,0.17-0.69,0.14-1.01c-0.01-0.17-0.06-0.32-0.13-0.48
						c-0.07-0.15-0.16-0.29-0.28-0.41c-0.06-0.06-0.13-0.12-0.2-0.17c-0.08-0.06-0.16-0.11-0.26-0.15
						c-0.09-0.04-0.19-0.07-0.28-0.09s-0.2-0.03-0.29-0.02c-0.2,0.02-0.36,0.06-0.5,0.13c-0.14,0.07-0.25,0.15-0.34,0.26
						c-0.09,0.1-0.15,0.22-0.19,0.36s-0.05,0.28-0.04,0.43c0.01,0.14,0.05,0.25,0.11,0.35c0.06,0.1,0.14,0.18,0.24,0.24
						c0.1,0.06,0.21,0.11,0.34,0.14c0.13,0.03,0.25,0.04,0.39,0.03c-0.05,0.17-0.12,0.35-0.24,0.54c-0.11,0.2-0.25,0.38-0.4,0.54
						c-0.15,0.17-0.31,0.3-0.49,0.42c-0.17,0.11-0.34,0.18-0.51,0.19c-0.11,0.01-0.2-0.01-0.27-0.05c-0.07-0.04-0.11-0.12-0.12-0.23
						l-0.31-4.2c1.66-0.1,3.31-0.27,4.97-0.42c0.07,0.34,0.16,0.71,0.26,1.11s0.23,0.8,0.39,1.21c0.15,0.4,0.34,0.79,0.55,1.15
						c0.21,0.37,0.46,0.68,0.75,0.95c0.29,0.27,0.62,0.48,0.99,0.62c0.37,0.14,0.79,0.18,1.26,0.13c0.43-0.05,0.8-0.15,1.11-0.32
						c0.31-0.17,0.56-0.39,0.74-0.64c0.19-0.26,0.32-0.55,0.39-0.88c0.07-0.33,0.08-0.68,0.03-1.05c-0.01-0.1-0.04-0.21-0.1-0.35
						c-0.05-0.13-0.12-0.27-0.2-0.42c-0.08-0.14-0.17-0.28-0.28-0.42c-0.11-0.14-0.22-0.26-0.34-0.37
						c-0.12-0.11-0.24-0.19-0.37-0.25c-0.13-0.06-0.25-0.08-0.38-0.06c-0.05,0.01-0.11,0.03-0.17,0.07
						c-0.06,0.04-0.12,0.09-0.19,0.16c-0.06,0.07-0.13,0.14-0.19,0.22l-0.19,0.25c-0.05,0.07-0.11,0.15-0.15,0.21
						c-0.05,0.07-0.1,0.13-0.14,0.18c-0.04,0.05-0.08,0.1-0.1,0.13c-0.03,0.03-0.04,0.05-0.05,0.05c-0.09,0.01-0.16-0.02-0.2-0.09
						s-0.07-0.15-0.08-0.24l-0.19-1.7c1.27-0.13,2.54-0.3,3.81-0.47l0,0l0.51-0.07c0.03,0,0.06-0.01,0.09-0.01l0,0l0.23-0.03
						l0.47,3.44c0.05,0.36,0.11,0.67,0.18,0.92c0.07,0.26,0.18,0.47,0.32,0.63s0.33,0.27,0.56,0.33c0.23,0.06,0.52,0.06,0.88,0
						c0.16-0.02,0.32-0.08,0.48-0.16s0.31-0.18,0.46-0.3c0.15-0.12,0.3-0.27,0.45-0.43c0.15-0.16,0.29-0.34,0.43-0.53
						c0.28-0.39,0.47-0.76,0.57-1.12c0.1-0.36,0.12-0.69,0.07-1.01c-0.03-0.16-0.08-0.32-0.16-0.47c-0.08-0.15-0.18-0.28-0.31-0.39
						c-0.06-0.06-0.13-0.11-0.22-0.16c-0.08-0.05-0.17-0.09-0.27-0.13c-0.09-0.03-0.19-0.06-0.29-0.07s-0.2-0.01-0.29,0
						c-0.19,0.03-0.36,0.08-0.49,0.16s-0.24,0.17-0.32,0.28c-0.08,0.11-0.13,0.23-0.16,0.37c-0.03,0.14-0.03,0.28-0.01,0.43
						c0.02,0.14,0.06,0.25,0.13,0.34c0.07,0.09,0.16,0.17,0.26,0.22c0.1,0.05,0.22,0.09,0.35,0.11s0.26,0.02,0.39,0.01
						c-0.03,0.17-0.1,0.35-0.2,0.56c-0.1,0.2-0.22,0.39-0.36,0.57c-0.14,0.18-0.29,0.33-0.46,0.46c-0.16,0.13-0.33,0.2-0.5,0.23
						c-0.11,0.02-0.2,0.01-0.27-0.02c-0.07-0.03-0.12-0.11-0.13-0.22l-0.59-4.17c1.72-0.27,3.44-0.5,5.15-0.81L153.09,172.01z
						 M126.22,176.64c-0.08-0.08-0.16-0.14-0.25-0.2c-0.09-0.06-0.19-0.1-0.29-0.14c-0.1-0.03-0.22-0.05-0.34-0.05
						c-0.11,0.02-0.21,0.05-0.3,0.11c-0.09,0.06-0.18,0.12-0.26,0.19c-0.03-0.45-0.2-0.79-0.51-1.04l-0.04-0.03l2.15-0.06l0.04,1.45
						C126.37,176.79,126.3,176.71,126.22,176.64z M129.52,174.42l-0.01,0.05c-2.53,0.11-5.06,0.17-7.6,0.19l-0.01-0.02l-1.07,0.01
						l-0.23-0.41c0.01-0.13,0.06-0.26,0.13-0.38c0.07-0.12,0.17-0.24,0.28-0.34s0.24-0.2,0.38-0.29s0.29-0.16,0.44-0.23
						c0.15-0.06,0.3-0.11,0.44-0.15c0.15-0.04,0.28-0.05,0.41-0.06c0.3,0,0.59,0.03,0.87,0.09s0.56,0.17,0.82,0.31
						c0.3,0.16,0.58,0.31,0.83,0.48c0.25,0.16,0.48,0.33,0.69,0.51l0.22-0.14l-0.04-0.1c0.04,0.02,0.07,0.04,0.11,0.05
						c0.11,0.04,0.23,0.07,0.35,0.09c0.13,0.02,0.26,0.03,0.41,0.02c0.21-0.01,0.42-0.02,0.62-0.03c0.2-0.02,0.41-0.03,0.62-0.05
						c0.11-0.01,0.21-0.02,0.3-0.02c0.09-0.01,0.18-0.01,0.26-0.02c0.19-0.01,0.35,0.01,0.47,0.04c0.08,0.04,0.15,0.09,0.21,0.14
						c0.06,0.06,0.09,0.13,0.09,0.21L129.52,174.42z M135,172.38c0.07,0.01,0.13,0.03,0.2,0.05l-0.02,0
						c-0.15,0.02-0.3,0.04-0.45,0.05c-0.09,0.01-0.19,0-0.3-0.01c-0.1-0.02-0.2-0.04-0.28-0.09c-0.02-0.01-0.03-0.03-0.05-0.04
						c0.01,0,0.02-0.01,0.03-0.01C134.43,172.32,134.72,172.33,135,172.38z M133.39,174.23l-1,0.06l-0.25-0.4
						c0.01-0.13,0.04-0.26,0.11-0.38c0.07-0.13,0.15-0.24,0.26-0.35c0.11-0.11,0.23-0.21,0.36-0.31c0.14-0.1,0.28-0.18,0.42-0.25
						c0,0,0.01,0,0.01-0.01c0.04,0.1,0.09,0.19,0.15,0.28c0.15,0.19,0.33,0.33,0.55,0.45s0.46,0.19,0.71,0.23s0.5,0.06,0.73,0.04
						c0.16-0.01,0.32-0.03,0.49-0.05l0.48-0.07l0.45-0.07c0.08-0.01,0.17-0.02,0.26-0.03c0.1,0.06,0.2,0.12,0.29,0.19l0.21-0.16
						l-0.02-0.03c0.05,0.01,0.11,0.02,0.15,0.04c0.07,0.03,0.13,0.06,0.18,0.11c0.05,0.05,0.08,0.11,0.09,0.17
						c0,0.04,0,0.07,0.01,0.09l0,0.09l0,0.02C136.49,174.03,134.94,174.13,133.39,174.23z M143.57,177.52
						c0.16,0.03,0.32,0.04,0.48,0.03c0.13-0.01,0.28-0.07,0.44-0.16s0.31-0.2,0.45-0.32c0.14-0.12,0.28-0.26,0.39-0.39
						c0.12-0.14,0.21-0.27,0.27-0.38c0.13,0.15,0.2,0.3,0.22,0.46c0.01,0.08,0.02,0.16,0.02,0.22s-0.01,0.12-0.02,0.18
						c-0.01,0.06-0.03,0.11-0.06,0.17c-0.03,0.06-0.06,0.13-0.11,0.2c-0.07,0.12-0.16,0.23-0.26,0.34c-0.1,0.1-0.22,0.2-0.34,0.28
						c-0.13,0.08-0.26,0.15-0.4,0.2s-0.28,0.09-0.43,0.1c-0.44,0.05-0.83-0.03-1.19-0.25c-0.29-0.17-0.54-0.39-0.77-0.64
						c-0.23-0.25-0.43-0.52-0.59-0.82s-0.3-0.6-0.41-0.92c-0.11-0.32-0.18-0.63-0.23-0.94l-0.7-0.28c0.06,0,0.11-0.01,0.17-0.02l0,0
						c0.66-0.06,1.32-0.14,1.98-0.21l0.24,2.24c0.02,0.16,0.07,0.3,0.15,0.42c0.08,0.12,0.18,0.23,0.31,0.31
						C143.28,177.43,143.42,177.49,143.57,177.52z"/>
					<path d="M156.51,177.41c-0.09-0.13-0.19-0.24-0.3-0.32c-0.12-0.08-0.24-0.13-0.37-0.16c-0.13-0.03-0.25-0.03-0.37-0.01
						c-0.11,0.02-0.21,0.05-0.31,0.1c-0.09,0.05-0.17,0.11-0.24,0.19s-0.11,0.16-0.14,0.25c-0.03,0.09-0.04,0.2-0.02,0.31
						c0.02,0.12,0.06,0.22,0.11,0.3s0.12,0.14,0.19,0.19s0.15,0.07,0.24,0.08c0.09,0.01,0.18,0.01,0.27-0.01l0.02,0
						c0.1-0.02,0.18-0.06,0.25-0.13l0.04-0.03c0.02-0.01,0.04-0.02,0.06-0.03l0.01-0.01l0.02,0l0.01-0.01
						c-0.01,0.01-0.02,0.02-0.01,0.04c0.02,0.14,0.01,0.28-0.03,0.41c-0.05,0.14-0.11,0.26-0.2,0.38c-0.09,0.12-0.19,0.22-0.31,0.31
						c-0.12,0.09-0.24,0.17-0.37,0.22l0.09,0.54c0.23-0.12,0.46-0.26,0.66-0.41c0.21-0.15,0.38-0.32,0.53-0.5
						c0.14-0.18,0.25-0.37,0.32-0.57s0.08-0.42,0.04-0.65C156.65,177.71,156.59,177.55,156.51,177.41z"/>
					<path d="M183.64,167.53c-0.1-0.13-0.22-0.24-0.36-0.34c-0.07-0.05-0.15-0.09-0.24-0.12c-0.09-0.04-0.18-0.07-0.28-0.09
						c-0.1-0.02-0.2-0.03-0.3-0.03s-0.2,0.02-0.29,0.05c-0.19,0.06-0.34,0.14-0.46,0.24c-0.12,0.1-0.21,0.21-0.27,0.33
						c-0.06,0.12-0.09,0.25-0.1,0.39c-0.01,0.14,0.01,0.28,0.06,0.42c0.04,0.13,0.1,0.24,0.19,0.32c0.08,0.08,0.18,0.14,0.29,0.18
						c0.11,0.04,0.23,0.06,0.36,0.05c0.13,0,0.26-0.02,0.38-0.06c-0.01,0.17-0.04,0.37-0.11,0.58c-0.07,0.21-0.15,0.42-0.26,0.62
						c-0.11,0.2-0.24,0.37-0.38,0.52c-0.14,0.15-0.3,0.25-0.46,0.3c-0.11,0.03-0.2,0.04-0.28,0.01s-0.13-0.09-0.16-0.2l-1.24-4.02
						c1.67-0.49,3.31-1.06,4.96-1.59l-1.19-0.58l-0.46,0.15c0-0.02-0.01-0.04-0.01-0.04l0-0.01l0-0.01c0,0-0.01-0.01-0.01-0.03
						c-0.09-0.29-0.24-0.51-0.43-0.67c-0.19-0.16-0.41-0.28-0.66-0.34c-0.25-0.06-0.51-0.08-0.78-0.06
						c-0.28,0.02-0.54,0.08-0.8,0.16c-0.16,0.05-0.31,0.11-0.45,0.17l-0.43,0.18l-0.41,0.17c-0.14,0.06-0.28,0.11-0.43,0.15
						c-0.09,0.03-0.19,0.04-0.29,0.05c-0.1,0.01-0.2,0-0.3-0.02c-0.09-0.02-0.18-0.06-0.25-0.11c-0.07-0.05-0.12-0.12-0.15-0.21
						c-0.02-0.07,0-0.17,0.08-0.29c-0.01-0.05-0.03-0.09-0.04-0.12s-0.02-0.07-0.04-0.1c-0.01-0.03-0.03-0.06-0.05-0.09
						c-0.02-0.03-0.05-0.07-0.07-0.11l-0.12,0.03c-0.1,0.03-0.18,0.09-0.23,0.17c-0.05,0.08-0.09,0.18-0.11,0.28
						c-0.02,0.1-0.03,0.2-0.02,0.3c0.01,0.1,0.02,0.18,0.04,0.25c0.08,0.26,0.21,0.46,0.39,0.61c0.19,0.15,0.4,0.25,0.63,0.31
						c0.24,0.06,0.49,0.08,0.75,0.07c0.26-0.02,0.5-0.06,0.72-0.12c0.16-0.05,0.31-0.1,0.46-0.16c0.15-0.06,0.3-0.11,0.45-0.18
						l0.42-0.17c0.14-0.06,0.28-0.11,0.43-0.15c0.06-0.02,0.13-0.03,0.21-0.04c0.08-0.01,0.16-0.01,0.23,0
						c0.07,0.01,0.14,0.03,0.2,0.07c0.06,0.03,0.1,0.08,0.12,0.15c0.01,0.03,0.02,0.06,0.03,0.09l0.02,0.08l0.01,0.02
						c-1.57,0.53-3.15,0.99-4.73,1.47l0,0c-2.16,0.63-4.32,1.24-6.49,1.8c-1.28,0.34-2.57,0.66-3.86,0.96
						c-2.2,0.53-4.42,1.01-6.64,1.47l-0.23,0.05l-0.31-0.36c-0.01-0.13,0.01-0.26,0.06-0.4c0.05-0.13,0.12-0.26,0.21-0.39
						c0.09-0.13,0.2-0.24,0.32-0.35c0.12-0.11,0.25-0.21,0.38-0.31c0.13-0.09,0.27-0.17,0.41-0.23c0.14-0.06,0.27-0.11,0.39-0.14
						c0.29-0.06,0.58-0.09,0.87-0.08s0.58,0.05,0.87,0.14c0.33,0.1,0.63,0.2,0.91,0.31c0.28,0.11,0.53,0.24,0.78,0.37l0.18-0.18
						l-0.24-0.37c-1.47-0.92-2.84-1.27-4.13-0.98c-0.17,0.04-0.34,0.1-0.52,0.19c-0.18,0.09-0.35,0.2-0.52,0.32
						c-0.16,0.13-0.32,0.27-0.46,0.43c-0.14,0.16-0.26,0.33-0.35,0.5c-0.1,0.18-0.16,0.36-0.21,0.54c-0.04,0.19-0.04,0.37-0.01,0.55
						c0.04,0.19,0.17,0.37,0.39,0.52l0.15,0.08l-1.55,0.3l1.04,0.74l0.84-0.16l1.11,5.63l1.14,0.75l-1.33-6.56
						c0.3-0.06,0.6-0.12,0.9-0.19c0.02,0.01,0.05,0.03,0.06,0.03c0.38,0.18,0.75,0.27,1.09,0.26c0.6-0.02,0.97,0,1.1,0.06
						c0.09,0.04,0.17,0.13,0.26,0.26c0.08,0.13,0.16,0.31,0.24,0.54c-0.11,0.24-0.2,0.42-0.25,0.54c-0.06,0.12-0.09,0.19-0.11,0.22
						c-0.16,0.35-0.3,0.53-0.42,0.56c-0.08,0.02-0.19-0.04-0.33-0.18c-0.14-0.14-0.27-0.36-0.39-0.67l-0.59,0.81
						c0.21,0.23,0.39,0.42,0.52,0.57c0.14,0.14,0.25,0.24,0.32,0.29c0.18,0.13,0.36,0.21,0.55,0.26c0.19,0.04,0.39,0.04,0.59,0
						c0.36-0.08,0.64-0.34,0.83-0.77c0.1-0.23,0.18-0.44,0.25-0.61c0.07-0.18,0.13-0.33,0.17-0.45c0.14-0.33,0.32-0.53,0.54-0.58
						c0.32-0.08,0.57,0.06,0.77,0.4c0.11,0.18,0.23,0.54,0.35,1.06l0.41,1.72l1.18,0.79l-1.51-6.36l0.8-0.19l0,0c0,0,0,0,0,0
						l0.74-0.18l-0.01,0c0.28-0.07,0.56-0.13,0.83-0.2c-0.1,0.19-0.2,0.4-0.28,0.62c-0.08,0.22-0.15,0.44-0.19,0.67
						c-0.05,0.23-0.07,0.45-0.08,0.68c0,0.23,0.02,0.45,0.07,0.66l0.08,0.33c0.06,0.25,0.15,0.49,0.25,0.73
						c0.11,0.24,0.24,0.46,0.39,0.67c0.15,0.21,0.33,0.4,0.54,0.57c0.2,0.17,0.43,0.31,0.68,0.42l-0.01,0
						c0.16,0.07,0.35,0.11,0.55,0.11c0.2,0,0.4-0.02,0.59-0.07c0.15-0.04,0.31-0.11,0.48-0.23c0.14-0.1,0.25-0.2,0.33-0.3
						s0.14-0.21,0.17-0.31c0.03-0.1,0.05-0.2,0.05-0.3c0-0.1-0.01-0.19-0.04-0.28c-0.05-0.18-0.14-0.33-0.27-0.44
						s-0.29-0.18-0.48-0.22l0,0c-0.13-0.03-0.27-0.03-0.41,0.01l-0.03,0.01c-0.12,0.03-0.23,0.08-0.33,0.14
						c-0.1,0.06-0.18,0.14-0.24,0.23s-0.1,0.19-0.12,0.29c-0.02,0.11-0.02,0.22,0.01,0.34c0.02,0.07,0.05,0.14,0.1,0.21
						c0.05,0.07,0.11,0.14,0.17,0.2c-0.28-0.02-0.51-0.15-0.7-0.38c-0.09-0.12-0.18-0.23-0.25-0.33c-0.07-0.1-0.13-0.2-0.19-0.31
						c-0.05-0.1-0.1-0.21-0.14-0.33c-0.04-0.11-0.08-0.24-0.11-0.38c-0.06-0.22-0.09-0.45-0.1-0.68s0.01-0.46,0.05-0.68
						c0.04-0.23,0.11-0.45,0.2-0.66c0.09-0.21,0.22-0.41,0.37-0.6c0.13-0.15,0.36-0.36,0.7-0.61l0.62-0.41
						c1.52-0.38,3.02-0.83,4.52-1.25l0.23,0.79c-0.17-0.14-0.34-0.22-0.52-0.25c-0.18-0.03-0.37-0.02-0.57,0.03
						c-0.08,0.02-0.15,0.06-0.22,0.11c-0.07,0.05-0.14,0.12-0.2,0.19c-0.06,0.07-0.11,0.15-0.15,0.23
						c-0.04,0.08-0.07,0.16-0.09,0.23c-0.48-0.28-0.96-0.35-1.46-0.21c-0.24,0.07-0.44,0.18-0.6,0.34
						c-0.16,0.16-0.27,0.34-0.35,0.54c-0.08,0.21-0.12,0.42-0.13,0.65c-0.01,0.23,0.02,0.45,0.07,0.65
						c0.07,0.26,0.18,0.49,0.34,0.68c0.15,0.19,0.34,0.34,0.55,0.45c0.21,0.11,0.45,0.18,0.71,0.2c0.26,0.02,0.53-0.01,0.8-0.09
						c0.13-0.04,0.26-0.09,0.38-0.16s0.22-0.16,0.31-0.26c0.09-0.1,0.15-0.21,0.18-0.33s0.04-0.25,0-0.38
						c-0.04-0.13-0.09-0.25-0.17-0.37c-0.08-0.12-0.17-0.22-0.28-0.3c-0.11-0.08-0.23-0.14-0.36-0.18s-0.27-0.03-0.42,0.01
						c-0.11,0.03-0.21,0.08-0.3,0.15s-0.17,0.15-0.22,0.24c-0.06,0.09-0.1,0.19-0.12,0.3c-0.02,0.11-0.02,0.21,0.01,0.32
						c0.01,0.04,0.02,0.08,0.04,0.11l0.06,0.11c-0.28-0.04-0.46-0.2-0.54-0.47c-0.03-0.13-0.04-0.25-0.02-0.38
						c0.02-0.12,0.07-0.24,0.13-0.35c0.06-0.11,0.15-0.2,0.25-0.28c0.1-0.08,0.22-0.14,0.36-0.18c0.17-0.05,0.34-0.06,0.49-0.05
						c0.16,0.02,0.3,0.06,0.43,0.12c0.13,0.07,0.25,0.16,0.36,0.27s0.19,0.24,0.27,0.39l0.49-0.33c-0.04-0.1-0.08-0.19-0.12-0.26
						c-0.03-0.07-0.05-0.14-0.07-0.19c-0.08-0.28,0-0.45,0.22-0.51c0.08-0.02,0.17-0.03,0.25-0.01c0.08,0.01,0.16,0.04,0.24,0.08
						s0.14,0.09,0.19,0.15s0.09,0.13,0.11,0.21l0.95,3.28l1.2,0.56l-1.81-6.15l1.23-0.37l0,0l0.2-0.06l1,3.32
						c0.1,0.35,0.21,0.64,0.33,0.88s0.25,0.43,0.42,0.57c0.16,0.14,0.36,0.22,0.6,0.24c0.24,0.02,0.53-0.02,0.87-0.13
						c0.16-0.05,0.31-0.12,0.45-0.22c0.14-0.1,0.28-0.23,0.41-0.38c0.13-0.15,0.25-0.31,0.37-0.5c0.12-0.19,0.23-0.38,0.34-0.6
						c0.22-0.43,0.35-0.83,0.38-1.2c0.04-0.37,0.01-0.71-0.09-1.01C183.82,167.81,183.74,167.66,183.64,167.53z M165.32,171.38
						c-0.07,0.02-0.27,0.17-0.6,0.48c-0.03-0.12-0.06-0.23-0.11-0.33s-0.11-0.18-0.17-0.26c-0.07-0.08-0.14-0.15-0.23-0.22
						s-0.18-0.13-0.28-0.19c0.76-0.16,1.53-0.33,2.29-0.52l0.32,1.39C166.05,171.42,165.65,171.3,165.32,171.38z"/>
				</g>
			</g>
		</g>
		<g>
			<path class="st9" d="M125.43,30.29c0.01,0.46,0.03,0.93,0.04,1.39c0.46-0.02,0.93-0.03,1.39-0.04c0.02-0.33,0.05-0.98,0.07-1.31
				C126.43,30.31,125.93,30.3,125.43,30.29z"/>
			<path class="st9" d="M125.51,36.04c-0.02,0.27-0.05,0.8-0.07,1.07c0.43,0.02,0.86,0.05,1.29,0.08c0.02-0.26,0.05-0.8,0.07-1.07
				C126.37,36.09,125.94,36.07,125.51,36.04z"/>
			<path class="st9" d="M137.42,31.29c-1.62-3.84-5.68-6.69-9.94-6.14c-1.65,0.44-3.68,0.94-5.18,1.77c-2.7,1.1-2.04,1.2-2.03,1.31
				c1.51,0.19,5.35-1.85,6.86-1.59c2.5-0.32,4.99,0.7,7.07,2c2.05,2.68,0.34,5.92-0.24,8.78c-0.64,2.47-0.32,5.4-2.31,7.31
				c-2.49-0.31-5.02-0.8-7.51-0.27c-0.89,0.08-1.87,0.39-2.69-0.09c-0.87-0.72-0.49-1.94-0.46-2.91c0.67-0.06,1.35-0.12,2.04-0.18
				c-0.99-0.54-2.81-0.89-2.56-2.38c0.15-1.23,1.49-1.36,2.45-1.5l0.07-0.29c-0.85-0.11-1.69-0.22-2.53-0.33
				c0.04-0.72,0.08-1.44,0.12-2.16c0.65-0.25,1.3-0.5,1.95-0.76c-0.43-0.15-1.28-0.45-1.7-0.6c-0.26-1.03-0.66-2.07-0.57-3.15
				c0.27-0.79,0.93-1.39,1.16-2.2c-0.67-0.39-1.47-0.3-2.2-0.4c-2.16-0.02-4.06-1.24-6.18-1.5c-3.41-0.33-7.1,0.69-9.41,3.31
				c-0.77,0.75-0.56,1.91-0.47,2.86c0.8,4.52,1.95,8.99,2.51,13.54c0.22,0.23,0.65,0.69,0.87,0.93c1.41-0.07,2.79-0.32,4.11-0.85
				c2.95-1.03,6.07-0.07,8.9,0.87c3.55-0.45,7.06-2.06,10.69-1.21c1.45,0.23,3.12,1.52,4.43,0.23c0.6-2.51,0.89-5.08,1.6-7.57
				C136.77,35.89,137.75,33.63,137.42,31.29z M118.13,44.17c-2.56,0.08-5.1-0.27-7.65-0.17c-1.45,0.23-2.46-1.77-1.78-2.94
				c0.95-0.3,1.91-0.54,2.86-0.87c-1.41-0.4-3.41-0.08-4.16-1.65c-0.84-1.67-1.22-3.63-0.87-5.48c0.05-0.89,1.05-0.94,1.68-1.22
				c-0.82-0.54-2.22-1.06-1.78-2.32c3.14-3.6,10.04-3.36,12.65,0.93c0.17,0.98-0.04,2.46-1.29,2.56c-1.45-0.53-2.82-1.26-4.33-1.59
				c0.42,0.87,0.76,1.86,1.64,2.38c1.04,0.8,2.47,0.35,3.62,0.89c0.77,1.37-0.41,2.27-1.64,2.5c-0.79-0.31-1.59-0.59-2.4-0.85
				c-0.04,0.27-0.12,0.8-0.16,1.07c1.44,0.11,2.88,0.22,4.31,0.41c-0.2,0.98-0.65,1.86-1.16,2.71
				C118.22,41.71,118.8,42.87,118.13,44.17z"/>
			<path class="st9" d="M129.49,37.66c0.61,0.06,1.13-0.07,1.57-0.39c0.34-1.12-0.77-1.01-1.52-1.16
				C129.53,36.5,129.51,37.27,129.49,37.66z"/>
			<path class="st9" d="M128.08,39.98c0.26,0.67,1.4,0.42,1.31-0.3c-0.26-0.03-0.78-0.1-1.04-0.13L128.08,39.98z"/>
			<path class="st9" d="M125.84,40.78c0.3,1.32,1.92-0.81,0.63-0.97C125.78,38.89,124.66,40.64,125.84,40.78z"/>
			<path class="st9" d="M122.48,31.48c0.15,0.13,0.44,0.4,0.59,0.53c0.27-0.21,0.55-0.42,0.83-0.63c-0.2-0.49-0.47-0.95-0.76-1.39
				l-0.04,0.69l-0.59-0.1C122.5,30.8,122.49,31.25,122.48,31.48z"/>
			<path class="st9" d="M131.92,33.29c0.12-0.7,0.24-1.39,0.37-2.09c-0.84-0.26-1.67-0.54-2.5-0.83c0.14,0.43,0.29,0.85,0.43,1.28
				c-0.18,0.33-0.53,1-0.7,1.33C130.32,33.08,131.12,33.19,131.92,33.29z"/>
		</g>
		<g>
			<g>
				<polygon class="st0" points="171.06,41.87 171.12,45.38 174.04,47.33 170.72,48.46 169.77,51.84 167.66,49.03 164.16,49.17 
					166.18,46.31 164.96,43.02 168.31,44.05 				"/>
				<polygon class="st0" points="153.35,36.57 153.41,40.74 156.88,43.05 152.94,44.39 151.82,48.4 149.32,45.07 145.15,45.24 
					147.55,41.83 146.1,37.93 150.08,39.16 				"/>
			</g>
			<g>
				<polygon class="st0" points="69.48,41.87 69.43,45.38 66.51,47.33 69.83,48.46 70.78,51.84 72.88,49.03 76.39,49.17 
					74.37,46.31 75.59,43.02 72.24,44.05 				"/>
				<polygon class="st0" points="87.19,36.57 87.13,40.74 83.66,43.05 87.61,44.39 88.73,48.4 91.23,45.07 95.39,45.24 93,41.83 
					94.44,37.93 90.46,39.16 				"/>
			</g>
		</g>
	</g>
	<g>
		<path class="st10" d="M35.83,205.25H35.2c-0.14,0-0.28-0.02-0.4-0.05s-0.22-0.11-0.3-0.22c-0.08-0.11-0.11-0.29-0.11-0.51v-2.08
			h0.57c0.66,0,1.22-0.08,1.68-0.23c0.46-0.16,0.83-0.37,1.12-0.65c0.28-0.28,0.49-0.58,0.62-0.93c0.13-0.34,0.2-0.7,0.2-1.09
			c0-0.83-0.27-1.48-0.82-1.96c-0.55-0.48-1.39-0.72-2.52-0.72h-3.77v0.62h0.39c0.14,0,0.28,0.02,0.39,0.05s0.22,0.11,0.29,0.22
			c0.08,0.11,0.11,0.29,0.11,0.53v6.17c0,0.25-0.04,0.43-0.11,0.55c-0.07,0.12-0.17,0.2-0.29,0.24c-0.12,0.04-0.25,0.06-0.41,0.06
			h-0.39v0.62h4.37V205.25z M34.38,197.5h0.63c0.63,0,1.07,0.17,1.32,0.5c0.25,0.33,0.38,0.84,0.38,1.54c0,0.39-0.03,0.72-0.1,1
			c-0.07,0.28-0.18,0.5-0.33,0.67c-0.15,0.17-0.35,0.29-0.59,0.37c-0.24,0.08-0.53,0.12-0.87,0.12h-0.44V197.5z"/>
		<path class="st10" d="M42.31,205.42c0.62,0.39,1.4,0.58,2.34,0.58c0.9,0,1.66-0.19,2.28-0.58c0.62-0.39,1.09-0.93,1.42-1.63
			c0.32-0.7,0.48-1.52,0.48-2.46s-0.16-1.76-0.48-2.46c-0.32-0.7-0.79-1.24-1.41-1.63s-1.38-0.58-2.27-0.58
			c-0.94,0-1.72,0.19-2.34,0.58s-1.09,0.92-1.4,1.62c-0.31,0.69-0.46,1.51-0.46,2.45s0.15,1.76,0.46,2.46S41.69,205.03,42.31,205.42
			z M42.85,198.46c0.35-0.68,0.95-1.02,1.81-1.02c0.57,0,1.02,0.15,1.36,0.46c0.34,0.3,0.58,0.75,0.73,1.33
			c0.15,0.58,0.22,1.28,0.22,2.1s-0.07,1.52-0.22,2.1c-0.15,0.58-0.39,1.02-0.73,1.33c-0.34,0.31-0.8,0.46-1.37,0.46
			c-0.56,0-1.01-0.15-1.35-0.46c-0.34-0.31-0.59-0.75-0.74-1.33c-0.15-0.58-0.23-1.28-0.23-2.1
			C42.32,200.1,42.5,199.14,42.85,198.46z"/>
		<path class="st10" d="M58,203.08h-0.7l-0.17,0.95c-0.04,0.21-0.11,0.4-0.19,0.58c-0.08,0.17-0.2,0.31-0.35,0.4
			c-0.15,0.09-0.33,0.14-0.54,0.14h-2.41v-6.92c0-0.24,0.04-0.41,0.11-0.53c0.07-0.11,0.17-0.19,0.29-0.22
			c0.12-0.03,0.25-0.05,0.39-0.05h0.39v-0.62H50.7v0.62h0.39c0.15,0,0.29,0.02,0.41,0.06c0.12,0.04,0.21,0.12,0.29,0.23
			c0.07,0.12,0.11,0.3,0.11,0.56v6.12c0,0.25-0.04,0.43-0.11,0.55c-0.07,0.12-0.17,0.2-0.29,0.24c-0.12,0.04-0.25,0.06-0.41,0.06
			H50.7v0.62h7.2L58,203.08z"/>
		<path class="st10" d="M58.98,197.49c0.1,0.04,0.19,0.11,0.27,0.21c0.08,0.1,0.16,0.23,0.25,0.4l2.35,4.34v2.01
			c0,0.24-0.04,0.41-0.12,0.53c-0.08,0.11-0.18,0.19-0.31,0.22c-0.13,0.03-0.27,0.05-0.42,0.05h-0.48v0.62h4.41v-0.62h-0.5
			c-0.15,0-0.29-0.02-0.42-0.05c-0.13-0.03-0.23-0.11-0.3-0.23c-0.08-0.12-0.11-0.3-0.11-0.56v-1.96l2.15-4.04
			c0.14-0.26,0.26-0.47,0.36-0.61c0.1-0.14,0.19-0.24,0.29-0.3c0.1-0.05,0.21-0.08,0.35-0.08h0.2v-0.62H63.7v0.62h0.32
			c0.27,0,0.47,0.05,0.61,0.14c0.14,0.09,0.2,0.25,0.2,0.46c0,0.08-0.01,0.18-0.04,0.31c-0.03,0.13-0.09,0.28-0.17,0.45l-0.76,1.5
			c-0.14,0.28-0.28,0.55-0.41,0.81c-0.13,0.26-0.23,0.5-0.32,0.7c-0.07-0.19-0.15-0.41-0.24-0.63c-0.09-0.23-0.21-0.47-0.34-0.74
			l-0.94-1.8c-0.05-0.1-0.1-0.21-0.14-0.34c-0.04-0.12-0.06-0.24-0.06-0.35c0-0.14,0.05-0.26,0.16-0.36
			c0.11-0.1,0.28-0.15,0.53-0.15h0.3v-0.62h-3.96v0.62h0.17C58.75,197.43,58.88,197.45,58.98,197.49z"/>
		<path class="st10" d="M68.72,198.48c0.03-0.28,0.12-0.51,0.27-0.69c0.15-0.18,0.41-0.27,0.78-0.27h1.09v6.88
			c0,0.25-0.04,0.43-0.11,0.55c-0.07,0.12-0.17,0.2-0.29,0.23c-0.12,0.04-0.25,0.06-0.41,0.06h-0.44v0.62h4.23v-0.62H73.4
			c-0.14,0-0.28-0.02-0.41-0.06c-0.13-0.04-0.22-0.12-0.29-0.24c-0.07-0.12-0.1-0.31-0.1-0.55v-6.87h1.09
			c0.38,0,0.64,0.09,0.79,0.27c0.14,0.18,0.23,0.41,0.27,0.69l0.09,0.7h0.77l-0.06-2.37h-7.62l-0.06,2.37h0.78L68.72,198.48z"/>
		<path class="st10" d="M84.25,203.58h-0.8l-0.09,0.58c-0.03,0.19-0.08,0.35-0.15,0.5c-0.08,0.15-0.18,0.27-0.31,0.36
			c-0.13,0.09-0.3,0.13-0.5,0.13h-2.5v-3.66h3.02v-0.71h-3.02v-3.25h2.13c0.2,0,0.37,0.04,0.5,0.13c0.13,0.08,0.23,0.2,0.3,0.34
			c0.07,0.14,0.12,0.32,0.13,0.52l0.06,0.58h0.8l-0.06-2.3h-6.8v0.62h0.39c0.15,0,0.29,0.02,0.41,0.06
			c0.12,0.04,0.21,0.12,0.29,0.23c0.07,0.12,0.11,0.3,0.11,0.56v6.19c0,0.23-0.04,0.4-0.11,0.51c-0.08,0.11-0.17,0.19-0.29,0.22
			s-0.25,0.05-0.39,0.05h-0.39v0.62h7.2L84.25,203.58z"/>
		<path class="st10" d="M88.04,205.42c0.62,0.39,1.4,0.58,2.33,0.58c0.52,0,0.95-0.05,1.31-0.15c0.36-0.1,0.65-0.23,0.87-0.39
			c0.22-0.16,0.38-0.33,0.48-0.51c0.1-0.18,0.15-0.36,0.15-0.53c0-0.12-0.02-0.22-0.06-0.32c-0.04-0.09-0.1-0.17-0.17-0.22
			c-0.14,0.19-0.32,0.37-0.52,0.55c-0.2,0.18-0.45,0.32-0.75,0.44c-0.3,0.11-0.65,0.17-1.07,0.17c-0.62,0-1.12-0.14-1.5-0.43
			c-0.38-0.29-0.66-0.71-0.83-1.27c-0.17-0.56-0.26-1.23-0.26-2.02c0-0.83,0.08-1.53,0.23-2.11c0.15-0.58,0.4-1.02,0.74-1.32
			c0.34-0.3,0.8-0.46,1.38-0.46c0.36,0,0.64,0.09,0.84,0.26c0.21,0.17,0.36,0.39,0.44,0.65c0.09,0.26,0.13,0.53,0.13,0.8
			c0.44,0,0.79-0.1,1.04-0.29c0.25-0.19,0.37-0.44,0.37-0.74c0-0.27-0.1-0.52-0.3-0.74c-0.2-0.22-0.51-0.39-0.92-0.52
			c-0.41-0.13-0.93-0.19-1.54-0.19c-0.93,0-1.72,0.2-2.35,0.59c-0.63,0.39-1.11,0.94-1.44,1.64c-0.32,0.7-0.48,1.5-0.48,2.42
			c0,0.94,0.15,1.76,0.46,2.46S87.42,205.03,88.04,205.42z"/>
		<path class="st10" d="M98.98,205.25h-0.39c-0.14,0-0.28-0.02-0.4-0.06c-0.12-0.04-0.22-0.12-0.29-0.24
			c-0.07-0.12-0.11-0.31-0.11-0.55v-2.9h3.62v2.9c0,0.25-0.04,0.43-0.11,0.55c-0.07,0.12-0.17,0.2-0.29,0.24s-0.25,0.06-0.41,0.06
			h-0.39v0.62h4.12v-0.62h-0.39c-0.14,0-0.26-0.02-0.39-0.05c-0.12-0.03-0.22-0.11-0.29-0.22c-0.07-0.11-0.11-0.29-0.11-0.51v-6.19
			c0-0.25,0.03-0.44,0.1-0.56c0.07-0.12,0.17-0.2,0.29-0.23c0.13-0.04,0.26-0.06,0.39-0.06h0.39v-0.62h-4.12v0.62h0.39
			c0.15,0,0.29,0.02,0.41,0.06c0.12,0.04,0.21,0.12,0.29,0.23s0.11,0.3,0.11,0.56v2.5h-3.62v-2.5c0-0.25,0.04-0.44,0.11-0.56
			s0.17-0.2,0.29-0.23c0.12-0.04,0.26-0.06,0.4-0.06h0.39v-0.62h-4.12v0.62h0.39c0.14,0,0.28,0.02,0.39,0.05s0.22,0.11,0.29,0.22
			c0.08,0.11,0.11,0.29,0.11,0.53v6.17c0,0.25-0.04,0.43-0.11,0.55c-0.07,0.12-0.17,0.2-0.29,0.24c-0.12,0.04-0.26,0.06-0.4,0.06
			h-0.39v0.62h4.12V205.25z"/>
		<path class="st10" d="M109.17,205.25h-0.39c-0.14,0-0.28-0.02-0.4-0.06s-0.22-0.12-0.29-0.24c-0.07-0.12-0.11-0.31-0.11-0.55
			v-5.64l4.89,7.11h1.07v-7.6c0-0.25,0.03-0.44,0.1-0.56c0.07-0.12,0.17-0.2,0.29-0.23c0.13-0.04,0.26-0.06,0.39-0.06h0.39v-0.62
			h-3.26v0.62h0.39c0.14,0,0.28,0.02,0.39,0.05c0.12,0.03,0.22,0.11,0.29,0.22c0.08,0.11,0.11,0.29,0.11,0.53v5.17l-4.51-6.59h-2.63
			v0.62h0.39c0.14,0,0.28,0.02,0.39,0.05s0.22,0.11,0.29,0.22c0.08,0.11,0.11,0.29,0.11,0.53v6.17c0,0.25-0.04,0.43-0.11,0.55
			c-0.07,0.12-0.17,0.2-0.29,0.24c-0.12,0.04-0.26,0.06-0.4,0.06h-0.39v0.62h3.26V205.25z"/>
		<path class="st10" d="M120.68,205.25h-0.39c-0.14,0-0.28-0.02-0.4-0.06c-0.12-0.04-0.22-0.12-0.29-0.24
			c-0.07-0.12-0.1-0.31-0.1-0.55v-6.12c0-0.25,0.03-0.44,0.1-0.56c0.07-0.12,0.16-0.2,0.29-0.23c0.12-0.04,0.26-0.06,0.4-0.06h0.39
			v-0.62h-4.12v0.62h0.39c0.15,0,0.29,0.02,0.41,0.06c0.12,0.04,0.21,0.12,0.29,0.23c0.07,0.12,0.11,0.3,0.11,0.56v6.12
			c0,0.25-0.04,0.43-0.11,0.55c-0.07,0.12-0.17,0.2-0.29,0.24c-0.12,0.04-0.25,0.06-0.41,0.06h-0.39v0.62h4.12V205.25z"/>
		<path class="st10" d="M124.42,205.42c0.62,0.39,1.4,0.58,2.33,0.58c0.52,0,0.95-0.05,1.31-0.15c0.36-0.1,0.65-0.23,0.87-0.39
			c0.22-0.16,0.38-0.33,0.48-0.51c0.1-0.18,0.15-0.36,0.15-0.53c0-0.12-0.02-0.22-0.06-0.32c-0.04-0.09-0.1-0.17-0.17-0.22
			c-0.14,0.19-0.32,0.37-0.52,0.55c-0.2,0.18-0.45,0.32-0.75,0.44c-0.3,0.11-0.65,0.17-1.07,0.17c-0.62,0-1.12-0.14-1.5-0.43
			c-0.38-0.29-0.66-0.71-0.83-1.27c-0.17-0.56-0.26-1.23-0.26-2.02c0-0.83,0.08-1.53,0.23-2.11c0.15-0.58,0.4-1.02,0.74-1.32
			c0.34-0.3,0.8-0.46,1.38-0.46c0.36,0,0.64,0.09,0.84,0.26c0.21,0.17,0.36,0.39,0.44,0.65c0.09,0.26,0.13,0.53,0.13,0.8
			c0.44,0,0.79-0.1,1.03-0.29c0.25-0.19,0.37-0.44,0.37-0.74c0-0.27-0.1-0.52-0.3-0.74c-0.2-0.22-0.51-0.39-0.92-0.52
			c-0.41-0.13-0.93-0.19-1.54-0.19c-0.93,0-1.71,0.2-2.35,0.59c-0.63,0.39-1.11,0.94-1.43,1.64c-0.32,0.7-0.48,1.5-0.48,2.42
			c0,0.94,0.15,1.76,0.46,2.46C123.33,204.48,123.8,205.03,124.42,205.42z"/>
		<path class="st10" d="M139.41,205.25h-0.39c-0.14,0-0.28-0.02-0.4-0.06c-0.12-0.04-0.22-0.12-0.29-0.24
			c-0.07-0.12-0.1-0.31-0.1-0.55v-6.12c0-0.25,0.03-0.44,0.1-0.56s0.16-0.2,0.29-0.23c0.12-0.04,0.26-0.06,0.4-0.06h0.39v-0.62
			h-4.12v0.62h0.39c0.15,0,0.29,0.02,0.41,0.06c0.12,0.04,0.21,0.12,0.29,0.23c0.07,0.12,0.11,0.3,0.11,0.56v6.12
			c0,0.25-0.04,0.43-0.11,0.55c-0.07,0.12-0.17,0.2-0.29,0.24c-0.12,0.04-0.25,0.06-0.41,0.06h-0.39v0.62h4.12V205.25z"/>
		<path class="st10" d="M144.25,205.25h-0.39c-0.14,0-0.28-0.02-0.4-0.06c-0.12-0.04-0.22-0.12-0.29-0.24
			c-0.07-0.12-0.11-0.31-0.11-0.55v-5.64l4.89,7.11h1.07v-7.6c0-0.25,0.03-0.44,0.1-0.56c0.07-0.12,0.17-0.2,0.29-0.23
			c0.13-0.04,0.26-0.06,0.39-0.06h0.39v-0.62h-3.26v0.62h0.39c0.14,0,0.28,0.02,0.39,0.05s0.22,0.11,0.29,0.22
			c0.08,0.11,0.11,0.29,0.11,0.53v5.17l-4.51-6.59h-2.63v0.62h0.39c0.14,0,0.28,0.02,0.39,0.05c0.12,0.03,0.22,0.11,0.29,0.22
			c0.08,0.11,0.11,0.29,0.11,0.53v6.17c0,0.25-0.04,0.43-0.11,0.55c-0.07,0.12-0.17,0.2-0.29,0.24c-0.12,0.04-0.26,0.06-0.4,0.06
			h-0.39v0.62h3.26V205.25z"/>
		<path class="st10" d="M152.34,205.45c0.22,0.17,0.51,0.3,0.86,0.4c0.36,0.1,0.79,0.15,1.31,0.15c0.68,0,1.26-0.11,1.76-0.34
			c0.5-0.22,0.88-0.54,1.16-0.94c0.28-0.4,0.41-0.87,0.41-1.42c0-0.42-0.09-0.79-0.26-1.11s-0.44-0.6-0.79-0.85s-0.8-0.48-1.35-0.7
			c-0.54-0.22-0.96-0.43-1.26-0.62c-0.3-0.19-0.5-0.4-0.62-0.61c-0.12-0.21-0.18-0.46-0.18-0.74c0-0.4,0.13-0.71,0.39-0.93
			c0.26-0.22,0.59-0.34,0.98-0.34c0.34,0,0.61,0.09,0.81,0.27c0.2,0.18,0.34,0.4,0.43,0.67c0.09,0.26,0.13,0.52,0.13,0.76
			c0.45,0,0.79-0.09,1.02-0.27c0.23-0.18,0.34-0.42,0.34-0.7c0-0.26-0.1-0.5-0.29-0.72c-0.19-0.22-0.48-0.4-0.86-0.53
			c-0.38-0.13-0.86-0.2-1.44-0.2c-0.58,0-1.09,0.1-1.54,0.3c-0.45,0.2-0.8,0.48-1.07,0.85c-0.26,0.37-0.39,0.8-0.39,1.3
			c0,0.44,0.08,0.83,0.23,1.16c0.16,0.33,0.41,0.63,0.76,0.89c0.35,0.26,0.8,0.51,1.37,0.75c0.48,0.19,0.88,0.38,1.18,0.56
			c0.3,0.18,0.53,0.37,0.67,0.58c0.14,0.21,0.22,0.47,0.22,0.76c0,0.44-0.15,0.79-0.44,1.06c-0.29,0.27-0.7,0.4-1.23,0.4
			c-0.36,0-0.68-0.09-0.93-0.26c-0.26-0.17-0.46-0.42-0.59-0.74c-0.14-0.32-0.21-0.7-0.22-1.13c-0.22,0-0.43,0.04-0.62,0.11
			c-0.19,0.08-0.34,0.19-0.45,0.35c-0.11,0.16-0.16,0.36-0.16,0.6c0,0.22,0.05,0.44,0.15,0.65
			C151.96,205.09,152.12,205.29,152.34,205.45z"/>
		<path class="st10" d="M160.02,198.48c0.03-0.28,0.12-0.51,0.27-0.69c0.15-0.18,0.41-0.27,0.78-0.27h1.09v6.88
			c0,0.25-0.04,0.43-0.11,0.55c-0.07,0.12-0.17,0.2-0.29,0.23c-0.12,0.04-0.25,0.06-0.41,0.06h-0.44v0.62h4.23v-0.62h-0.44
			c-0.14,0-0.28-0.02-0.41-0.06c-0.13-0.04-0.22-0.12-0.29-0.24c-0.07-0.12-0.1-0.31-0.1-0.55v-6.87H165c0.38,0,0.64,0.09,0.79,0.27
			c0.14,0.18,0.23,0.41,0.27,0.69l0.09,0.7h0.77l-0.06-2.37h-7.62l-0.06,2.37h0.77L160.02,198.48z"/>
		<path class="st10" d="M172.38,205.25h-0.39c-0.14,0-0.28-0.02-0.4-0.06c-0.12-0.04-0.22-0.12-0.29-0.24
			c-0.07-0.12-0.1-0.31-0.1-0.55v-6.12c0-0.25,0.03-0.44,0.1-0.56s0.16-0.2,0.29-0.23c0.12-0.04,0.26-0.06,0.4-0.06h0.39v-0.62
			h-4.12v0.62h0.39c0.15,0,0.29,0.02,0.41,0.06c0.12,0.04,0.21,0.12,0.29,0.23c0.07,0.12,0.11,0.3,0.11,0.56v6.12
			c0,0.25-0.04,0.43-0.11,0.55c-0.07,0.12-0.17,0.2-0.29,0.24s-0.25,0.06-0.41,0.06h-0.39v0.62h4.12V205.25z"/>
		<path class="st10" d="M174.57,198.48c0.03-0.28,0.12-0.51,0.27-0.69c0.15-0.18,0.41-0.27,0.78-0.27h1.09v6.88
			c0,0.25-0.04,0.43-0.11,0.55c-0.07,0.12-0.17,0.2-0.29,0.23c-0.12,0.04-0.25,0.06-0.41,0.06h-0.44v0.62h4.23v-0.62h-0.44
			c-0.14,0-0.28-0.02-0.41-0.06c-0.13-0.04-0.22-0.12-0.29-0.24c-0.07-0.12-0.1-0.31-0.1-0.55v-6.87h1.09
			c0.38,0,0.64,0.09,0.79,0.27c0.14,0.18,0.23,0.41,0.27,0.69l0.09,0.7h0.77l-0.06-2.37h-7.62l-0.06,2.37h0.77L174.57,198.48z"/>
		<path class="st10" d="M183.4,197.48c0.12,0.03,0.22,0.11,0.29,0.22c0.08,0.11,0.11,0.29,0.11,0.53v4.89
			c0,0.69,0.14,1.24,0.41,1.66c0.27,0.42,0.66,0.73,1.17,0.93c0.51,0.19,1.12,0.29,1.83,0.29c0.71,0,1.3-0.11,1.77-0.33
			c0.47-0.22,0.81-0.54,1.04-0.95c0.23-0.41,0.34-0.9,0.34-1.45v-4.99c0-0.25,0.03-0.44,0.1-0.56c0.07-0.12,0.16-0.2,0.29-0.23
			c0.13-0.04,0.26-0.06,0.39-0.06h0.41v-0.62h-3.28v0.62h0.39c0.14,0,0.28,0.02,0.39,0.05c0.12,0.03,0.22,0.11,0.29,0.22
			c0.08,0.11,0.11,0.29,0.11,0.53v5.02c0,0.41-0.07,0.75-0.22,1.04c-0.15,0.29-0.37,0.5-0.66,0.65c-0.29,0.14-0.65,0.22-1.07,0.22
			c-0.59,0-1.07-0.14-1.44-0.43c-0.36-0.29-0.55-0.79-0.55-1.51v-4.93c0-0.25,0.04-0.44,0.11-0.56s0.17-0.2,0.29-0.23
			c0.12-0.04,0.26-0.06,0.4-0.06h0.39v-0.62h-4.12v0.62h0.39C183.15,197.43,183.28,197.45,183.4,197.48z"/>
		<path class="st10" d="M193.55,198.48c0.03-0.28,0.12-0.51,0.27-0.69c0.15-0.18,0.41-0.27,0.78-0.27h1.09v6.88
			c0,0.25-0.04,0.43-0.11,0.55c-0.07,0.12-0.17,0.2-0.29,0.23c-0.12,0.04-0.25,0.06-0.41,0.06h-0.44v0.62h4.23v-0.62h-0.44
			c-0.14,0-0.28-0.02-0.41-0.06c-0.13-0.04-0.22-0.12-0.29-0.24c-0.07-0.12-0.1-0.31-0.1-0.55v-6.87h1.09
			c0.38,0,0.64,0.09,0.79,0.27c0.14,0.18,0.23,0.41,0.27,0.69l0.09,0.7h0.77l-0.06-2.37h-7.62l-0.06,2.37h0.77L193.55,198.48z"/>
		<path class="st10" d="M209.08,203.58h-0.8l-0.09,0.58c-0.03,0.19-0.08,0.35-0.15,0.5c-0.08,0.15-0.18,0.27-0.31,0.36
			c-0.13,0.09-0.3,0.13-0.5,0.13h-2.5v-3.66h3.02v-0.71h-3.02v-3.25h2.13c0.2,0,0.37,0.04,0.5,0.13c0.13,0.08,0.23,0.2,0.3,0.34
			c0.07,0.14,0.12,0.32,0.13,0.52l0.06,0.58h0.8l-0.06-2.3h-6.8v0.62h0.39c0.15,0,0.29,0.02,0.41,0.06
			c0.12,0.04,0.21,0.12,0.29,0.23c0.07,0.12,0.11,0.3,0.11,0.56v6.19c0,0.23-0.04,0.4-0.11,0.51c-0.08,0.11-0.17,0.19-0.29,0.22
			c-0.12,0.03-0.25,0.05-0.39,0.05h-0.39v0.62h7.2L209.08,203.58z"/>
		<path class="st10" d="M94.42,219.78c0.22,0.17,0.51,0.3,0.86,0.4c0.36,0.1,0.79,0.15,1.31,0.15c0.68,0,1.26-0.11,1.76-0.34
			c0.5-0.22,0.88-0.54,1.16-0.94c0.28-0.4,0.41-0.87,0.41-1.42c0-0.42-0.09-0.79-0.26-1.11c-0.17-0.32-0.44-0.6-0.79-0.85
			s-0.8-0.48-1.35-0.7c-0.54-0.22-0.96-0.43-1.26-0.62c-0.3-0.19-0.5-0.4-0.62-0.61c-0.12-0.21-0.18-0.46-0.18-0.74
			c0-0.4,0.13-0.71,0.39-0.93c0.26-0.22,0.59-0.34,0.98-0.34c0.34,0,0.61,0.09,0.81,0.27c0.2,0.18,0.34,0.4,0.43,0.67
			c0.09,0.26,0.13,0.52,0.13,0.76c0.45,0,0.79-0.09,1.02-0.27c0.23-0.18,0.34-0.42,0.34-0.7c0-0.26-0.1-0.5-0.29-0.72
			c-0.19-0.22-0.48-0.4-0.86-0.53c-0.38-0.13-0.86-0.2-1.44-0.2c-0.58,0-1.09,0.1-1.54,0.3c-0.45,0.2-0.8,0.48-1.07,0.85
			c-0.26,0.37-0.39,0.8-0.39,1.3c0,0.44,0.08,0.83,0.23,1.16c0.16,0.33,0.41,0.63,0.76,0.89c0.35,0.26,0.8,0.51,1.37,0.75
			c0.48,0.19,0.88,0.38,1.18,0.56c0.3,0.18,0.53,0.37,0.67,0.58c0.14,0.21,0.22,0.47,0.22,0.76c0,0.44-0.15,0.79-0.44,1.06
			c-0.29,0.27-0.7,0.4-1.23,0.4c-0.36,0-0.68-0.09-0.93-0.26c-0.26-0.17-0.45-0.42-0.59-0.74s-0.21-0.7-0.22-1.13
			c-0.22,0-0.43,0.04-0.62,0.11c-0.19,0.08-0.34,0.19-0.45,0.35c-0.11,0.16-0.17,0.36-0.17,0.6c0,0.22,0.05,0.44,0.15,0.65
			C94.04,219.41,94.2,219.61,94.42,219.78z"/>
		<path class="st10" d="M104.7,211.75h0.3v-0.62h-3.96v0.62h0.17c0.16,0,0.29,0.02,0.39,0.06c0.1,0.04,0.19,0.11,0.27,0.21
			c0.08,0.1,0.16,0.23,0.25,0.4l2.35,4.34v2.01c0,0.24-0.04,0.41-0.12,0.53c-0.08,0.11-0.18,0.19-0.31,0.22
			c-0.13,0.03-0.27,0.05-0.42,0.05h-0.48v0.62h4.41v-0.62h-0.5c-0.15,0-0.29-0.02-0.42-0.05c-0.13-0.03-0.23-0.11-0.3-0.23
			c-0.08-0.12-0.11-0.3-0.11-0.56v-1.96l2.15-4.04c0.14-0.26,0.26-0.47,0.36-0.61c0.1-0.14,0.19-0.24,0.29-0.3
			c0.1-0.05,0.21-0.08,0.35-0.08h0.2v-0.62h-3.24v0.62h0.32c0.27,0,0.47,0.05,0.61,0.14c0.14,0.09,0.2,0.25,0.2,0.46
			c0,0.08-0.01,0.18-0.04,0.31c-0.03,0.13-0.09,0.28-0.17,0.45l-0.76,1.5c-0.14,0.28-0.28,0.55-0.41,0.81
			c-0.13,0.26-0.23,0.5-0.32,0.7c-0.07-0.19-0.15-0.41-0.24-0.63c-0.09-0.23-0.21-0.47-0.34-0.74l-0.94-1.8
			c-0.05-0.1-0.1-0.21-0.14-0.34s-0.06-0.24-0.06-0.35c0-0.14,0.05-0.26,0.16-0.36C104.28,211.8,104.45,211.75,104.7,211.75z"/>
		<path class="st10" d="M113.64,212.55c0-0.24,0.04-0.41,0.11-0.53c0.07-0.11,0.17-0.19,0.29-0.22c0.12-0.03,0.25-0.05,0.39-0.05
			h0.39v-0.62h-4.12v0.62h0.39c0.15,0,0.29,0.02,0.41,0.06c0.12,0.04,0.21,0.12,0.29,0.23c0.07,0.12,0.11,0.3,0.11,0.56v6.12
			c0,0.25-0.04,0.43-0.11,0.55c-0.07,0.12-0.17,0.2-0.29,0.24c-0.12,0.04-0.25,0.06-0.41,0.06h-0.39v0.62h7.2l0.09-2.79h-0.7
			l-0.16,0.95c-0.04,0.21-0.11,0.4-0.19,0.58c-0.08,0.17-0.2,0.31-0.35,0.4c-0.15,0.09-0.33,0.14-0.54,0.14h-2.41V212.55z"/>
		<path class="st10" d="M124.97,211.75h0.39c0.15,0,0.29,0.02,0.41,0.06c0.12,0.04,0.21,0.12,0.29,0.23
			c0.07,0.12,0.11,0.3,0.11,0.56v2.5h-3.62v-2.5c0-0.25,0.04-0.44,0.11-0.56s0.17-0.2,0.29-0.23c0.12-0.04,0.26-0.06,0.4-0.06h0.39
			v-0.62h-4.12v0.62h0.39c0.14,0,0.28,0.02,0.39,0.05s0.22,0.11,0.29,0.22c0.08,0.11,0.11,0.29,0.11,0.53v6.17
			c0,0.25-0.04,0.43-0.11,0.55c-0.07,0.12-0.17,0.2-0.29,0.24c-0.12,0.04-0.26,0.06-0.4,0.06h-0.39v0.62h4.12v-0.62h-0.39
			c-0.14,0-0.28-0.02-0.4-0.06c-0.12-0.04-0.22-0.12-0.29-0.24c-0.07-0.12-0.11-0.31-0.11-0.55v-2.9h3.62v2.9
			c0,0.25-0.04,0.43-0.11,0.55c-0.07,0.12-0.17,0.2-0.29,0.24c-0.12,0.04-0.25,0.06-0.41,0.06h-0.39v0.62h4.12v-0.62h-0.39
			c-0.14,0-0.26-0.02-0.39-0.05c-0.12-0.03-0.22-0.11-0.29-0.22c-0.07-0.11-0.11-0.29-0.11-0.51v-6.19c0-0.25,0.03-0.44,0.1-0.56
			c0.07-0.12,0.17-0.2,0.29-0.23c0.13-0.04,0.26-0.06,0.39-0.06h0.39v-0.62h-4.12V211.75z"/>
		<path class="st10" d="M137.95,217.9h-0.8l-0.09,0.58c-0.03,0.19-0.08,0.35-0.15,0.5c-0.08,0.15-0.18,0.27-0.31,0.36
			c-0.13,0.09-0.3,0.13-0.5,0.13h-2.5v-3.66h3.02v-0.71h-3.02v-3.25h2.13c0.2,0,0.37,0.04,0.5,0.13s0.23,0.2,0.3,0.34
			c0.07,0.14,0.12,0.32,0.13,0.52l0.06,0.58h0.8l-0.06-2.3h-6.8v0.62h0.39c0.15,0,0.29,0.02,0.41,0.06
			c0.12,0.04,0.21,0.12,0.29,0.23c0.07,0.12,0.11,0.3,0.11,0.56v6.19c0,0.23-0.04,0.4-0.11,0.51c-0.08,0.11-0.17,0.19-0.29,0.22
			c-0.12,0.03-0.25,0.05-0.39,0.05h-0.39v0.62h7.2L137.95,217.9z"/>
		<path class="st10" d="M139.41,211.13l-0.06,2.37h0.77l0.08-0.7c0.03-0.28,0.12-0.51,0.27-0.69c0.15-0.18,0.41-0.27,0.78-0.27h1.09
			v6.88c0,0.25-0.04,0.43-0.11,0.55s-0.17,0.2-0.29,0.23c-0.12,0.04-0.25,0.06-0.41,0.06h-0.44v0.62h4.23v-0.62h-0.44
			c-0.14,0-0.28-0.02-0.41-0.06c-0.13-0.04-0.22-0.12-0.29-0.24c-0.07-0.12-0.1-0.31-0.1-0.55v-6.87h1.09
			c0.38,0,0.64,0.09,0.79,0.27c0.14,0.18,0.23,0.41,0.27,0.69l0.09,0.7h0.77l-0.06-2.37H139.41z"/>
		<path class="st10" d="M24.02,190.91v35.17h192.5v-35.17H24.02z M215.52,225.08H25.02v-33.17h190.5V225.08z"/>
	</g>
</g>
</svg>
